<svg xmlns="http://www.w3.org/2000/svg" xmlns:xlink="http://www.w3.org/1999/xlink" width="500" zoomAndPan="magnify" viewBox="0 0 375 374.999991" height="500" preserveAspectRatio="xMidYMid meet" version="1.0"><defs><clipPath id="4bd9308d3c"><path d="M 75.230469 117.914062 L 187.730469 117.914062 L 187.730469 225.164062 L 75.230469 225.164062 Z M 75.230469 117.914062 " clip-rule="nonzero"/></clipPath><clipPath id="6333849c73"><path d="M 187.9375 119.554688 L 299.6875 119.554688 L 299.6875 223.804688 L 187.9375 223.804688 Z M 187.9375 119.554688 " clip-rule="nonzero"/></clipPath></defs><g clip-path="url(#4bd9308d3c)"><path fill="#ffffff" d="M 185.984375 153.789062 C 179.890625 131.335938 161.445312 117.929688 136.640625 117.929688 L 75.230469 117.929688 L 76.441406 120.707031 C 81.648438 132.636719 93.421875 140.347656 106.441406 140.351562 L 123.164062 140.351562 L 123.300781 140.347656 C 123.9375 140.304688 126.285156 140.160156 129.808594 140.160156 C 133.195312 140.160156 136.648438 140.292969 140.054688 140.554688 L 140.390625 140.582031 C 153.4375 141.609375 171.3125 145.019531 182.359375 155.417969 L 182.5 155.550781 C 182.558594 155.605469 182.617188 155.65625 182.671875 155.714844 L 187.929688 160.949219 Z M 187.667969 179.664062 L 187.652344 179.878906 C 184.335938 207.855469 164.582031 225.234375 136.09375 225.234375 L 96.917969 225.234375 L 96.917969 172.269531 L 98.898438 172.269531 C 110.371094 172.269531 119.699219 181.601562 119.699219 193.070312 L 119.699219 202.449219 L 137.050781 202.449219 C 145.597656 202.449219 152.792969 199.640625 157.867188 194.332031 C 163.027344 188.925781 165.753906 181.117188 165.753906 171.742188 L 165.753906 171.421875 C 165.753906 164.164062 164.160156 157.90625 161.011719 152.820312 L 158.070312 148.070312 L 163.347656 149.902344 C 169.890625 152.171875 175.203125 155.199219 179.125 158.894531 C 184.863281 164.296875 187.734375 171.285156 187.667969 179.664062 " fill-opacity="1" fill-rule="nonzero"/></g><g clip-path="url(#6333849c73)"><path fill="#ffffff" d="M 238.058594 119.601562 C 222.859375 119.601562 210.089844 124.644531 201.132812 134.183594 C 192.5 143.375 187.9375 156.113281 187.9375 171.019531 L 187.9375 171.292969 C 187.9375 186.242188 192.542969 199.117188 201.261719 208.523438 C 210.367188 218.34375 223.253906 223.535156 238.53125 223.535156 L 274.011719 223.535156 C 276.238281 223.535156 278.042969 221.730469 278.042969 219.503906 L 278.042969 170.398438 C 278.042969 168.171875 276.238281 166.367188 274.011719 166.367188 L 241.28125 166.367188 C 238.96875 166.367188 237.09375 168.242188 237.09375 170.554688 L 237.09375 180.484375 C 237.09375 182.796875 238.96875 184.671875 241.28125 184.671875 L 246.847656 184.671875 L 246.847656 188.308594 C 246.847656 190.535156 245.042969 192.339844 242.816406 192.339844 L 237.707031 192.339844 C 225.691406 192.339844 218.796875 184.820312 218.796875 171.707031 L 218.796875 171.433594 C 218.796875 159.914062 224.570312 152.203125 234.234375 150.796875 C 235.269531 150.703125 236.316406 150.625 237.339844 150.5625 L 237.476562 150.558594 C 237.53125 150.558594 237.585938 150.554688 237.640625 150.554688 L 237.722656 150.554688 L 240.183594 150.484375 L 265.273438 150.484375 C 278.035156 150.484375 289.585938 142.921875 294.691406 131.226562 L 299.757812 119.601562 L 238.058594 119.601562 " fill-opacity="1" fill-rule="nonzero"/></g></svg>