<svg xmlns="http://www.w3.org/2000/svg" xmlns:xlink="http://www.w3.org/1999/xlink" width="500" zoomAndPan="magnify" viewBox="0 0 375 374.999991" height="500" preserveAspectRatio="xMidYMid meet" version="1.0"><defs><g/><clipPath id="7c329f2323"><path d="M 190 119 L 279.53125 119 L 279.53125 218.945312 L 190 218.945312 Z M 190 119 " clip-rule="nonzero"/></clipPath><clipPath id="18619e6983"><path d="M 95.78125 119 L 231 119 L 231 218.945312 L 95.78125 218.945312 Z M 95.78125 119 " clip-rule="nonzero"/></clipPath><clipPath id="17f2123b63"><path d="M 95.78125 77.945312 L 217 77.945312 L 217 218.945312 L 95.78125 218.945312 Z M 95.78125 77.945312 " clip-rule="nonzero"/></clipPath></defs><g clip-path="url(#7c329f2323)"><path fill="#737373" d="M 261.105469 163.34375 C 258.714844 138.847656 238.066406 119.703125 212.941406 119.703125 C 204.992188 119.703125 197.492188 121.625 190.875 125.019531 C 193.488281 126.644531 195.964844 128.515625 198.269531 130.621094 C 207.222656 138.789062 212.925781 149.792969 214.421875 161.738281 C 225.519531 166.78125 232.613281 177.726562 232.613281 190.007812 C 232.613281 202.964844 224.636719 214.085938 213.335938 218.738281 L 250.402344 218.738281 C 266.273438 218.738281 279.136719 205.875 279.136719 190.007812 C 279.136719 177.921875 271.671875 167.589844 261.105469 163.34375 " fill-opacity="1" fill-rule="nonzero"/></g><g clip-path="url(#18619e6983)"><path fill="#000000" d="M 212.261719 163.34375 C 209.867188 138.847656 189.21875 119.703125 164.09375 119.703125 C 151.6875 119.703125 140.375 124.375 131.8125 132.050781 C 150.292969 157.289062 178.5625 186.867188 220.476562 211.621094 C 226.488281 206.355469 230.289062 198.625 230.289062 190.007812 C 230.289062 177.921875 222.824219 167.589844 212.261719 163.34375 Z M 124.515625 140.257812 C 119.96875 146.710938 116.957031 154.324219 116.019531 162.570312 C 104.324219 166.207031 95.835938 177.117188 95.835938 190.007812 C 95.835938 205.875 108.699219 218.738281 124.566406 218.738281 L 201.558594 218.738281 C 206.757812 218.738281 211.628906 217.347656 215.835938 214.933594 C 214.160156 215.511719 212.203125 216.007812 210.089844 216.199219 C 210.089844 216.199219 156.632812 184.796875 124.515625 140.257812 " fill-opacity="1" fill-rule="nonzero"/></g><g clip-path="url(#17f2123b63)"><path fill="#737373" d="M 205.050781 218.527344 C 205.050781 218.527344 116.117188 166.972656 95.835938 77.941406 C 95.835938 77.941406 121.203125 158.773438 216.480469 214.5625 C 216.480469 214.5625 211.476562 217.9375 205.050781 218.527344 " fill-opacity="1" fill-rule="nonzero"/></g><g fill="#000000" fill-opacity="1"><g transform="translate(105.285702, 292.071745)"><g><path d="M 10.75 -5.84375 C 10.75 -3.90625 10.21875 -2.445312 9.15625 -1.46875 C 8.101562 -0.488281 6.632812 0 4.75 0 L 1.5625 0 L 1.5625 -11.46875 L 5.09375 -11.46875 C 6.238281 -11.46875 7.234375 -11.253906 8.078125 -10.828125 C 8.929688 -10.398438 9.585938 -9.765625 10.046875 -8.921875 C 10.515625 -8.085938 10.75 -7.0625 10.75 -5.84375 Z M 9.21875 -5.796875 C 9.21875 -7.328125 8.835938 -8.445312 8.078125 -9.15625 C 7.328125 -9.875 6.265625 -10.234375 4.890625 -10.234375 L 3 -10.234375 L 3 -1.234375 L 4.5625 -1.234375 C 7.664062 -1.234375 9.21875 -2.753906 9.21875 -5.796875 Z M 9.21875 -5.796875 "/></g></g></g><g fill="#000000" fill-opacity="1"><g transform="translate(118.159422, 292.071745)"><g><path d="M 8.84375 -4.328125 C 8.84375 -2.898438 8.484375 -1.796875 7.765625 -1.015625 C 7.046875 -0.234375 6.066406 0.15625 4.828125 0.15625 C 4.066406 0.15625 3.390625 -0.015625 2.796875 -0.359375 C 2.203125 -0.710938 1.734375 -1.222656 1.390625 -1.890625 C 1.054688 -2.554688 0.890625 -3.367188 0.890625 -4.328125 C 0.890625 -5.742188 1.242188 -6.835938 1.953125 -7.609375 C 2.660156 -8.378906 3.640625 -8.765625 4.890625 -8.765625 C 5.660156 -8.765625 6.34375 -8.585938 6.9375 -8.234375 C 7.539062 -7.890625 8.007812 -7.390625 8.34375 -6.734375 C 8.675781 -6.078125 8.84375 -5.273438 8.84375 -4.328125 Z M 2.34375 -4.328125 C 2.34375 -3.304688 2.539062 -2.5 2.9375 -1.90625 C 3.34375 -1.3125 3.984375 -1.015625 4.859375 -1.015625 C 5.734375 -1.015625 6.375 -1.3125 6.78125 -1.90625 C 7.1875 -2.5 7.390625 -3.304688 7.390625 -4.328125 C 7.390625 -5.335938 7.1875 -6.128906 6.78125 -6.703125 C 6.375 -7.285156 5.726562 -7.578125 4.84375 -7.578125 C 3.96875 -7.578125 3.332031 -7.285156 2.9375 -6.703125 C 2.539062 -6.128906 2.34375 -5.335938 2.34375 -4.328125 Z M 2.34375 -4.328125 "/></g></g></g><g fill="#000000" fill-opacity="1"><g transform="translate(129.026758, 292.071745)"><g/></g></g><g fill="#000000" fill-opacity="1"><g transform="translate(131.788286, 292.071745)"><g><path d="M 6.625 0 L 2.84375 -10.0625 L 2.78125 -10.0625 C 2.8125 -9.726562 2.835938 -9.28125 2.859375 -8.71875 C 2.878906 -8.15625 2.890625 -7.566406 2.890625 -6.953125 L 2.890625 0 L 1.5625 0 L 1.5625 -11.46875 L 3.6875 -11.46875 L 7.234375 -2.078125 L 7.296875 -2.078125 L 10.890625 -11.46875 L 13.015625 -11.46875 L 13.015625 0 L 11.578125 0 L 11.578125 -7.046875 C 11.578125 -7.609375 11.585938 -8.160156 11.609375 -8.703125 C 11.640625 -9.253906 11.664062 -9.695312 11.6875 -10.03125 L 11.625 -10.03125 L 7.8125 0 Z M 6.625 0 "/></g></g></g><g fill="#000000" fill-opacity="1"><g transform="translate(147.503048, 292.071745)"><g><path d="M 8.84375 -4.328125 C 8.84375 -2.898438 8.484375 -1.796875 7.765625 -1.015625 C 7.046875 -0.234375 6.066406 0.15625 4.828125 0.15625 C 4.066406 0.15625 3.390625 -0.015625 2.796875 -0.359375 C 2.203125 -0.710938 1.734375 -1.222656 1.390625 -1.890625 C 1.054688 -2.554688 0.890625 -3.367188 0.890625 -4.328125 C 0.890625 -5.742188 1.242188 -6.835938 1.953125 -7.609375 C 2.660156 -8.378906 3.640625 -8.765625 4.890625 -8.765625 C 5.660156 -8.765625 6.34375 -8.585938 6.9375 -8.234375 C 7.539062 -7.890625 8.007812 -7.390625 8.34375 -6.734375 C 8.675781 -6.078125 8.84375 -5.273438 8.84375 -4.328125 Z M 2.34375 -4.328125 C 2.34375 -3.304688 2.539062 -2.5 2.9375 -1.90625 C 3.34375 -1.3125 3.984375 -1.015625 4.859375 -1.015625 C 5.734375 -1.015625 6.375 -1.3125 6.78125 -1.90625 C 7.1875 -2.5 7.390625 -3.304688 7.390625 -4.328125 C 7.390625 -5.335938 7.1875 -6.128906 6.78125 -6.703125 C 6.375 -7.285156 5.726562 -7.578125 4.84375 -7.578125 C 3.96875 -7.578125 3.332031 -7.285156 2.9375 -6.703125 C 2.539062 -6.128906 2.34375 -5.335938 2.34375 -4.328125 Z M 2.34375 -4.328125 "/></g></g></g><g fill="#000000" fill-opacity="1"><g transform="translate(158.370382, 292.071745)"><g><path d="M 5.375 -8.765625 C 5.539062 -8.765625 5.710938 -8.753906 5.890625 -8.734375 C 6.078125 -8.722656 6.242188 -8.703125 6.390625 -8.671875 L 6.21875 -7.375 C 6.070312 -7.40625 5.914062 -7.429688 5.75 -7.453125 C 5.582031 -7.472656 5.425781 -7.484375 5.28125 -7.484375 C 4.84375 -7.484375 4.429688 -7.363281 4.046875 -7.125 C 3.660156 -6.882812 3.351562 -6.546875 3.125 -6.109375 C 2.894531 -5.679688 2.78125 -5.175781 2.78125 -4.59375 L 2.78125 0 L 1.359375 0 L 1.359375 -8.609375 L 2.515625 -8.609375 L 2.6875 -7.03125 L 2.75 -7.03125 C 3.007812 -7.5 3.363281 -7.90625 3.8125 -8.25 C 4.257812 -8.59375 4.78125 -8.765625 5.375 -8.765625 Z M 5.375 -8.765625 "/></g></g></g><g fill="#000000" fill-opacity="1"><g transform="translate(166.15591, 292.071745)"><g><path d="M 4.6875 -8.765625 C 5.414062 -8.765625 6.046875 -8.601562 6.578125 -8.28125 C 7.117188 -7.96875 7.53125 -7.519531 7.8125 -6.9375 C 8.09375 -6.351562 8.234375 -5.671875 8.234375 -4.890625 L 8.234375 -4.03125 L 2.34375 -4.03125 C 2.363281 -3.050781 2.613281 -2.304688 3.09375 -1.796875 C 3.570312 -1.296875 4.238281 -1.046875 5.09375 -1.046875 C 5.632812 -1.046875 6.117188 -1.09375 6.546875 -1.1875 C 6.972656 -1.289062 7.410156 -1.441406 7.859375 -1.640625 L 7.859375 -0.40625 C 7.421875 -0.207031 6.984375 -0.0664062 6.546875 0.015625 C 6.117188 0.109375 5.613281 0.15625 5.03125 0.15625 C 4.207031 0.15625 3.484375 -0.00390625 2.859375 -0.328125 C 2.234375 -0.660156 1.75 -1.15625 1.40625 -1.8125 C 1.0625 -2.46875 0.890625 -3.273438 0.890625 -4.234375 C 0.890625 -5.179688 1.046875 -5.988281 1.359375 -6.65625 C 1.671875 -7.332031 2.113281 -7.851562 2.6875 -8.21875 C 3.257812 -8.582031 3.925781 -8.765625 4.6875 -8.765625 Z M 4.671875 -7.609375 C 3.992188 -7.609375 3.457031 -7.390625 3.0625 -6.953125 C 2.675781 -6.523438 2.445312 -5.925781 2.375 -5.15625 L 6.765625 -5.15625 C 6.753906 -5.882812 6.582031 -6.472656 6.25 -6.921875 C 5.914062 -7.378906 5.390625 -7.609375 4.671875 -7.609375 Z M 4.671875 -7.609375 "/></g></g></g><g fill="#000000" fill-opacity="1"><g transform="translate(176.365149, 292.071745)"><g/></g></g><g fill="#000000" fill-opacity="1"><g transform="translate(179.126679, 292.071745)"><g><path d="M 14.734375 -11.46875 L 11.671875 0 L 10.21875 0 L 7.984375 -7.515625 C 7.890625 -7.816406 7.800781 -8.125 7.71875 -8.4375 C 7.632812 -8.757812 7.5625 -9.039062 7.5 -9.28125 C 7.445312 -9.519531 7.414062 -9.6875 7.40625 -9.78125 C 7.394531 -9.644531 7.332031 -9.347656 7.21875 -8.890625 C 7.113281 -8.429688 6.992188 -7.957031 6.859375 -7.46875 L 4.6875 0 L 3.234375 0 L 0.1875 -11.46875 L 1.703125 -11.46875 L 3.484375 -4.46875 C 3.609375 -3.96875 3.71875 -3.488281 3.8125 -3.03125 C 3.90625 -2.570312 3.976562 -2.140625 4.03125 -1.734375 C 4.082031 -2.148438 4.160156 -2.601562 4.265625 -3.09375 C 4.378906 -3.59375 4.503906 -4.078125 4.640625 -4.546875 L 6.671875 -11.46875 L 8.15625 -11.46875 L 10.265625 -4.5 C 10.410156 -4.007812 10.535156 -3.515625 10.640625 -3.015625 C 10.753906 -2.523438 10.835938 -2.097656 10.890625 -1.734375 C 10.929688 -2.128906 11.003906 -2.554688 11.109375 -3.015625 C 11.210938 -3.484375 11.328125 -3.972656 11.453125 -4.484375 L 13.21875 -11.46875 Z M 14.734375 -11.46875 "/></g></g></g><g fill="#000000" fill-opacity="1"><g transform="translate(195.210614, 292.071745)"><g><path d="M 2.09375 -11.84375 C 2.300781 -11.84375 2.488281 -11.769531 2.65625 -11.625 C 2.820312 -11.476562 2.90625 -11.25 2.90625 -10.9375 C 2.90625 -10.625 2.820312 -10.394531 2.65625 -10.25 C 2.488281 -10.101562 2.300781 -10.03125 2.09375 -10.03125 C 1.851562 -10.03125 1.648438 -10.101562 1.484375 -10.25 C 1.328125 -10.394531 1.25 -10.625 1.25 -10.9375 C 1.25 -11.25 1.328125 -11.476562 1.484375 -11.625 C 1.648438 -11.769531 1.851562 -11.84375 2.09375 -11.84375 Z M 2.78125 -8.609375 L 2.78125 0 L 1.359375 0 L 1.359375 -8.609375 Z M 2.78125 -8.609375 "/></g></g></g><g fill="#000000" fill-opacity="1"><g transform="translate(200.50822, 292.071745)"><g><path d="M 4.234375 -1 C 4.453125 -1 4.671875 -1.015625 4.890625 -1.046875 C 5.117188 -1.078125 5.300781 -1.117188 5.4375 -1.171875 L 5.4375 -0.09375 C 5.289062 -0.0195312 5.078125 0.0351562 4.796875 0.078125 C 4.523438 0.128906 4.257812 0.15625 4 0.15625 C 3.550781 0.15625 3.132812 0.078125 2.75 -0.078125 C 2.375 -0.234375 2.066406 -0.503906 1.828125 -0.890625 C 1.597656 -1.273438 1.484375 -1.8125 1.484375 -2.5 L 1.484375 -7.515625 L 0.25 -7.515625 L 0.25 -8.1875 L 1.5 -8.75 L 2.0625 -10.578125 L 2.890625 -10.578125 L 2.890625 -8.609375 L 5.375 -8.609375 L 5.375 -7.515625 L 2.890625 -7.515625 L 2.890625 -2.53125 C 2.890625 -2.007812 3.015625 -1.625 3.265625 -1.375 C 3.515625 -1.125 3.835938 -1 4.234375 -1 Z M 4.234375 -1 "/></g></g></g><g fill="#000000" fill-opacity="1"><g transform="translate(207.459089, 292.071745)"><g><path d="M 2.78125 -12.203125 L 2.78125 -8.625 C 2.78125 -8.195312 2.753906 -7.796875 2.703125 -7.421875 L 2.796875 -7.421875 C 3.078125 -7.859375 3.453125 -8.1875 3.921875 -8.40625 C 4.398438 -8.632812 4.921875 -8.75 5.484375 -8.75 C 6.515625 -8.75 7.296875 -8.5 7.828125 -8 C 8.359375 -7.507812 8.625 -6.710938 8.625 -5.609375 L 8.625 0 L 7.234375 0 L 7.234375 -5.515625 C 7.234375 -6.890625 6.585938 -7.578125 5.296875 -7.578125 C 4.335938 -7.578125 3.675781 -7.304688 3.3125 -6.765625 C 2.957031 -6.222656 2.78125 -5.453125 2.78125 -4.453125 L 2.78125 0 L 1.359375 0 L 1.359375 -12.203125 Z M 2.78125 -12.203125 "/></g></g></g><g fill="#000000" fill-opacity="1"><g transform="translate(218.535084, 292.071745)"><g/></g></g><g fill="#000000" fill-opacity="1"><g transform="translate(221.296607, 292.071745)"><g><path d="M 6.46875 -10.359375 C 5.238281 -10.359375 4.269531 -9.945312 3.5625 -9.125 C 2.851562 -8.300781 2.5 -7.171875 2.5 -5.734375 C 2.5 -4.304688 2.828125 -3.175781 3.484375 -2.34375 C 4.148438 -1.519531 5.140625 -1.109375 6.453125 -1.109375 C 6.953125 -1.109375 7.425781 -1.148438 7.875 -1.234375 C 8.320312 -1.316406 8.765625 -1.425781 9.203125 -1.5625 L 9.203125 -0.3125 C 8.773438 -0.144531 8.332031 -0.0234375 7.875 0.046875 C 7.425781 0.117188 6.882812 0.15625 6.25 0.15625 C 5.082031 0.15625 4.109375 -0.0820312 3.328125 -0.5625 C 2.546875 -1.039062 1.957031 -1.722656 1.5625 -2.609375 C 1.175781 -3.503906 0.984375 -4.550781 0.984375 -5.75 C 0.984375 -6.90625 1.191406 -7.925781 1.609375 -8.8125 C 2.035156 -9.695312 2.660156 -10.382812 3.484375 -10.875 C 4.304688 -11.375 5.304688 -11.625 6.484375 -11.625 C 7.691406 -11.625 8.75 -11.398438 9.65625 -10.953125 L 9.078125 -9.734375 C 8.722656 -9.890625 8.328125 -10.03125 7.890625 -10.15625 C 7.460938 -10.289062 6.988281 -10.359375 6.46875 -10.359375 Z M 6.46875 -10.359375 "/></g></g></g><g fill="#000000" fill-opacity="1"><g transform="translate(232.597318, 292.071745)"><g><path d="M 2.78125 0 L 1.359375 0 L 1.359375 -12.203125 L 2.78125 -12.203125 Z M 2.78125 0 "/></g></g></g><g fill="#000000" fill-opacity="1"><g transform="translate(237.894918, 292.071745)"><g><path d="M 8.84375 -4.328125 C 8.84375 -2.898438 8.484375 -1.796875 7.765625 -1.015625 C 7.046875 -0.234375 6.066406 0.15625 4.828125 0.15625 C 4.066406 0.15625 3.390625 -0.015625 2.796875 -0.359375 C 2.203125 -0.710938 1.734375 -1.222656 1.390625 -1.890625 C 1.054688 -2.554688 0.890625 -3.367188 0.890625 -4.328125 C 0.890625 -5.742188 1.242188 -6.835938 1.953125 -7.609375 C 2.660156 -8.378906 3.640625 -8.765625 4.890625 -8.765625 C 5.660156 -8.765625 6.34375 -8.585938 6.9375 -8.234375 C 7.539062 -7.890625 8.007812 -7.390625 8.34375 -6.734375 C 8.675781 -6.078125 8.84375 -5.273438 8.84375 -4.328125 Z M 2.34375 -4.328125 C 2.34375 -3.304688 2.539062 -2.5 2.9375 -1.90625 C 3.34375 -1.3125 3.984375 -1.015625 4.859375 -1.015625 C 5.734375 -1.015625 6.375 -1.3125 6.78125 -1.90625 C 7.1875 -2.5 7.390625 -3.304688 7.390625 -4.328125 C 7.390625 -5.335938 7.1875 -6.128906 6.78125 -6.703125 C 6.375 -7.285156 5.726562 -7.578125 4.84375 -7.578125 C 3.96875 -7.578125 3.332031 -7.285156 2.9375 -6.703125 C 2.539062 -6.128906 2.34375 -5.335938 2.34375 -4.328125 Z M 2.34375 -4.328125 "/></g></g></g><g fill="#000000" fill-opacity="1"><g transform="translate(248.762249, 292.071745)"><g><path d="M 8.5625 -8.609375 L 8.5625 0 L 7.40625 0 L 7.203125 -1.140625 L 7.125 -1.140625 C 6.851562 -0.691406 6.46875 -0.363281 5.96875 -0.15625 C 5.476562 0.0507812 4.957031 0.15625 4.40625 0.15625 C 3.363281 0.15625 2.578125 -0.0859375 2.046875 -0.578125 C 1.523438 -1.078125 1.265625 -1.875 1.265625 -2.96875 L 1.265625 -8.609375 L 2.703125 -8.609375 L 2.703125 -3.0625 C 2.703125 -1.695312 3.335938 -1.015625 4.609375 -1.015625 C 5.566406 -1.015625 6.226562 -1.28125 6.59375 -1.8125 C 6.957031 -2.351562 7.140625 -3.125 7.140625 -4.125 L 7.140625 -8.609375 Z M 8.5625 -8.609375 "/></g></g></g><g fill="#000000" fill-opacity="1"><g transform="translate(259.838244, 292.071745)"><g><path d="M 4.421875 0.15625 C 3.347656 0.15625 2.488281 -0.210938 1.84375 -0.953125 C 1.207031 -1.703125 0.890625 -2.8125 0.890625 -4.28125 C 0.890625 -5.757812 1.210938 -6.875 1.859375 -7.625 C 2.503906 -8.382812 3.363281 -8.765625 4.4375 -8.765625 C 5.09375 -8.765625 5.632812 -8.640625 6.0625 -8.390625 C 6.488281 -8.148438 6.832031 -7.851562 7.09375 -7.5 L 7.203125 -7.5 C 7.171875 -7.632812 7.144531 -7.835938 7.125 -8.109375 C 7.101562 -8.390625 7.09375 -8.609375 7.09375 -8.765625 L 7.09375 -12.203125 L 8.515625 -12.203125 L 8.515625 0 L 7.375 0 L 7.15625 -1.15625 L 7.09375 -1.15625 C 6.84375 -0.789062 6.5 -0.476562 6.0625 -0.21875 C 5.632812 0.03125 5.085938 0.15625 4.421875 0.15625 Z M 4.640625 -1.015625 C 5.546875 -1.015625 6.179688 -1.257812 6.546875 -1.75 C 6.921875 -2.25 7.109375 -3.003906 7.109375 -4.015625 L 7.109375 -4.265625 C 7.109375 -5.335938 6.929688 -6.160156 6.578125 -6.734375 C 6.234375 -7.304688 5.582031 -7.59375 4.625 -7.59375 C 3.863281 -7.59375 3.289062 -7.289062 2.90625 -6.6875 C 2.53125 -6.082031 2.34375 -5.269531 2.34375 -4.25 C 2.34375 -3.226562 2.53125 -2.429688 2.90625 -1.859375 C 3.289062 -1.296875 3.867188 -1.015625 4.640625 -1.015625 Z M 4.640625 -1.015625 "/></g></g></g><g fill="#808080" fill-opacity="1"><g transform="translate(43.436642, 266.440559)"><g><path d="M 15.4375 0.667969 C 24.671875 0.667969 28.285156 -3.023438 28.835938 -10.566406 L 22.667969 -10.566406 C 22.351562 -6.480469 20.390625 -4.242188 15.359375 -4.242188 C 10.136719 -4.242188 8.015625 -7.269531 8.015625 -13.042969 C 8.015625 -18.894531 10.292969 -21.921875 15.558594 -21.921875 C 20.390625 -21.921875 22.234375 -19.722656 22.589844 -15.871094 L 28.71875 -15.871094 C 28.128906 -23.019531 24.472656 -26.792969 15.476562 -26.792969 C 5.65625 -26.792969 1.769531 -20.269531 1.769531 -13.042969 C 1.769531 -5.695312 5.617188 0.667969 15.4375 0.667969 Z M 15.4375 0.667969 "/></g></g></g><g fill="#808080" fill-opacity="1"><g transform="translate(72.229643, 266.440559)"><g><path d="M 20.191406 -26.125 L 20.191406 -15.675781 L 8.210938 -15.675781 L 8.210938 -26.125 L 2.277344 -26.125 L 2.277344 0 L 8.210938 0 L 8.210938 -11 L 20.191406 -11 L 20.191406 0 L 26.164062 0 L 26.164062 -26.125 Z M 20.191406 -26.125 "/></g></g></g><g fill="#808080" fill-opacity="1"><g transform="translate(99.019298, 266.440559)"><g><path d="M 2.160156 -9.78125 C 2.160156 -2.945312 6.089844 0.628906 13.90625 0.628906 C 21.722656 0.628906 25.613281 -2.984375 25.613281 -9.78125 L 25.613281 -26.125 L 19.683594 -26.125 L 19.683594 -10.605469 C 19.683594 -5.539062 17.757812 -4.242188 13.90625 -4.242188 C 10.058594 -4.242188 8.132812 -5.539062 8.132812 -10.605469 L 8.132812 -26.125 L 2.160156 -26.125 Z M 2.160156 -9.78125 "/></g></g></g><g fill="#808080" fill-opacity="1"><g transform="translate(125.180445, 266.440559)"><g><path d="M 15.4375 0.667969 C 24.671875 0.667969 28.285156 -3.023438 28.835938 -10.566406 L 22.667969 -10.566406 C 22.351562 -6.480469 20.390625 -4.242188 15.359375 -4.242188 C 10.136719 -4.242188 8.015625 -7.269531 8.015625 -13.042969 C 8.015625 -18.894531 10.292969 -21.921875 15.558594 -21.921875 C 20.390625 -21.921875 22.234375 -19.722656 22.589844 -15.871094 L 28.71875 -15.871094 C 28.128906 -23.019531 24.472656 -26.792969 15.476562 -26.792969 C 5.65625 -26.792969 1.769531 -20.269531 1.769531 -13.042969 C 1.769531 -5.695312 5.617188 0.667969 15.4375 0.667969 Z M 15.4375 0.667969 "/></g></g></g><g fill="#808080" fill-opacity="1"><g transform="translate(153.973446, 266.440559)"><g><path d="M 16.421875 -15.085938 L 26.515625 -26.125 L 18.738281 -26.125 L 8.25 -13.828125 L 8.25 -26.125 L 2.277344 -26.125 L 2.277344 0 L 8.25 0 L 8.25 -6.167969 L 12.414062 -10.726562 L 19.5625 0 L 26.714844 0 L 26.714844 -0.3125 Z M 16.421875 -15.085938 "/></g></g></g><g fill="#808080" fill-opacity="1"><g transform="translate(180.252444, 266.440559)"><g><path d="M 17.914062 -21.410156 L 17.914062 -26.125 L 2.277344 -26.125 L 2.277344 -21.410156 L 7.109375 -21.410156 L 7.109375 -4.753906 L 2.277344 -4.753906 L 2.277344 0 L 17.914062 0 L 17.914062 -4.753906 L 13.082031 -4.753906 L 13.082031 -21.410156 Z M 17.914062 -21.410156 "/></g></g></g><g fill="#808080" fill-opacity="1"><g transform="translate(198.832304, 266.440559)"><g><path d="M 8.25 -4.753906 L 8.25 -11.117188 L 21.605469 -11.117188 L 21.605469 -15.558594 L 8.25 -15.558594 L 8.25 -21.410156 L 22.785156 -21.410156 L 22.785156 -26.125 L 2.277344 -26.125 L 2.277344 0 L 22.902344 0 L 22.902344 -4.753906 Z M 8.25 -4.753906 "/></g></g></g><g fill="#808080" fill-opacity="1"><g transform="translate(222.08664, 266.440559)"><g/></g></g><g fill="#808080" fill-opacity="1"><g transform="translate(230.414081, 266.440559)"><g><path d="M 24.472656 -26.125 L 1.296875 -26.125 L 1.296875 -21.410156 L 9.898438 -21.410156 L 9.898438 0 L 15.871094 0 L 15.871094 -21.410156 L 24.472656 -21.410156 Z M 24.472656 -26.125 "/></g></g></g><g fill="#808080" fill-opacity="1"><g transform="translate(254.571882, 266.440559)"><g><path d="M 8.25 -4.753906 L 8.25 -11.117188 L 21.605469 -11.117188 L 21.605469 -15.558594 L 8.25 -15.558594 L 8.25 -21.410156 L 22.785156 -21.410156 L 22.785156 -26.125 L 2.277344 -26.125 L 2.277344 0 L 22.902344 0 L 22.902344 -4.753906 Z M 8.25 -4.753906 "/></g></g></g><g fill="#808080" fill-opacity="1"><g transform="translate(277.826206, 266.440559)"><g><path d="M 15.4375 0.667969 C 24.671875 0.667969 28.285156 -3.023438 28.835938 -10.566406 L 22.667969 -10.566406 C 22.351562 -6.480469 20.390625 -4.242188 15.359375 -4.242188 C 10.136719 -4.242188 8.015625 -7.269531 8.015625 -13.042969 C 8.015625 -18.894531 10.292969 -21.921875 15.558594 -21.921875 C 20.390625 -21.921875 22.234375 -19.722656 22.589844 -15.871094 L 28.71875 -15.871094 C 28.128906 -23.019531 24.472656 -26.792969 15.476562 -26.792969 C 5.65625 -26.792969 1.769531 -20.269531 1.769531 -13.042969 C 1.769531 -5.695312 5.617188 0.667969 15.4375 0.667969 Z M 15.4375 0.667969 "/></g></g></g><g fill="#808080" fill-opacity="1"><g transform="translate(306.619197, 266.440559)"><g><path d="M 20.191406 -26.125 L 20.191406 -15.675781 L 8.210938 -15.675781 L 8.210938 -26.125 L 2.277344 -26.125 L 2.277344 0 L 8.210938 0 L 8.210938 -11 L 20.191406 -11 L 20.191406 0 L 26.164062 0 L 26.164062 -26.125 Z M 20.191406 -26.125 "/></g></g></g><path stroke-linecap="butt" transform="matrix(0.75, 0, 0, 0.75, 23.981672, 227.204339)" fill="none" stroke-linejoin="miter" d="M 44.21194 50.894217 C 56.514024 50.894217 61.336941 45.972342 62.066108 35.909841 L 53.842149 35.909841 C 53.435899 41.357758 50.810899 44.347342 44.112982 44.347342 C 37.144231 44.347342 34.316106 40.305675 34.316106 32.607758 C 34.316106 24.805674 37.347356 20.764007 44.36819 20.764007 C 50.810899 20.764007 53.269232 23.706716 53.743191 28.836924 L 61.915066 28.836924 C 61.133816 19.310882 56.258816 14.28484 44.264023 14.28484 C 31.170272 14.28484 25.977564 22.967132 25.977564 32.607758 C 25.977564 42.404633 31.118189 50.894217 44.21194 50.894217 Z M 88.935901 15.165048 L 88.935901 29.102549 L 72.961942 29.102549 L 72.961942 15.165048 L 65.0609 15.165048 L 65.0609 49.998384 L 72.961942 49.998384 L 72.961942 35.331716 L 88.935901 35.331716 L 88.935901 49.998384 L 96.899443 49.998384 L 96.899443 15.165048 Z M 100.612985 36.956716 C 100.612985 46.076509 105.857777 50.842134 116.279653 50.842134 C 126.701529 50.842134 131.894237 46.024425 131.894237 36.956716 L 131.894237 15.165048 L 123.97757 15.165048 L 123.97757 35.857758 C 123.97757 42.607758 121.404653 44.347342 116.279653 44.347342 C 111.149444 44.347342 108.581736 42.607758 108.581736 35.857758 L 108.581736 15.165048 L 100.612985 15.165048 Z M 153.206739 50.894217 C 165.508823 50.894217 170.326532 45.972342 171.055698 35.909841 L 162.836948 35.909841 C 162.425489 41.357758 159.805698 44.347342 153.102572 44.347342 C 146.133822 44.347342 143.305696 40.305675 143.305696 32.607758 C 143.305696 24.805674 146.336947 20.764007 153.35778 20.764007 C 159.805698 20.764007 162.258823 23.706716 162.732781 28.836924 L 170.904657 28.836924 C 170.123407 19.310882 165.253615 14.28484 153.258822 14.28484 C 140.159863 14.28484 134.967154 22.967132 134.967154 32.607758 C 134.967154 42.404633 140.112988 50.894217 153.206739 50.894217 Z M 192.89945 29.883799 L 206.368201 15.165048 L 195.9932 15.165048 L 182.003616 31.560883 L 182.003616 15.165048 L 174.05049 15.165048 L 174.05049 49.998384 L 182.003616 49.998384 L 182.003616 41.779633 L 187.555699 35.701508 L 197.097367 49.998384 L 206.623409 49.998384 L 206.623409 49.576509 Z M 229.93591 21.456715 L 229.93591 15.165048 L 209.092159 15.165048 L 209.092159 21.456715 L 215.524451 21.456715 L 215.524451 43.654634 L 209.092159 43.654634 L 209.092159 49.998384 L 229.93591 49.998384 L 229.93591 43.654634 L 223.487993 43.654634 L 223.487993 21.456715 Z M 241.81612 43.654634 L 241.81612 35.180675 L 259.628621 35.180675 L 259.628621 29.258799 L 241.81612 29.258799 L 241.81612 21.456715 L 261.201538 21.456715 L 261.201538 15.165048 L 233.862994 15.165048 L 233.862994 49.998384 L 261.357788 49.998384 L 261.357788 43.654634 Z M 305.560915 15.165048 L 274.654663 15.165048 L 274.654663 21.456715 L 286.123414 21.456715 L 286.123414 49.998384 L 294.092165 49.998384 L 294.092165 21.456715 L 305.560915 21.456715 Z M 316.133833 43.654634 L 316.133833 35.180675 L 333.951542 35.180675 L 333.951542 29.258799 L 316.133833 29.258799 L 316.133833 21.456715 L 335.524459 21.456715 L 335.524459 15.165048 L 308.180707 15.165048 L 308.180707 49.998384 L 335.675501 49.998384 L 335.675501 43.654634 Z M 356.732794 50.894217 C 369.034878 50.894217 373.857795 45.972342 374.586962 35.909841 L 366.363003 35.909841 C 365.951544 41.357758 363.331753 44.347342 356.628627 44.347342 C 349.659877 44.347342 346.83696 40.305675 346.83696 32.607758 C 346.83696 24.805674 349.86821 20.764007 356.889044 20.764007 C 363.331753 20.764007 365.784878 23.706716 366.258836 28.836924 L 374.430712 28.836924 C 373.649462 19.310882 368.77967 14.28484 356.784877 14.28484 C 343.691126 14.28484 338.498418 22.967132 338.498418 32.607758 C 338.498418 42.404633 343.639043 50.894217 356.732794 50.894217 Z M 401.451547 15.165048 L 401.451547 29.102549 L 385.482796 29.102549 L 385.482796 15.165048 L 377.576545 15.165048 L 377.576545 49.998384 L 385.482796 49.998384 L 385.482796 35.331716 L 401.451547 35.331716 L 401.451547 49.998384 L 409.420297 49.998384 L 409.420297 15.165048 Z M 401.451547 15.165048 " stroke="#000000" stroke-width="1.96431" stroke-opacity="1" stroke-miterlimit="4"/></svg>