<svg xmlns="http://www.w3.org/2000/svg" xmlns:xlink="http://www.w3.org/1999/xlink" width="500" zoomAndPan="magnify" viewBox="0 0 375 374.999991" height="500" preserveAspectRatio="xMidYMid meet" version="1.0"><defs><g/><clipPath id="1be7f65ac9"><path d="M 63.976562 206.894531 L 305.636719 206.894531 L 305.636719 234.582031 L 63.976562 234.582031 Z M 63.976562 206.894531 " clip-rule="nonzero"/></clipPath><clipPath id="b3d2bead3c"><path d="M 77.824219 206.894531 L 291.792969 206.894531 C 295.464844 206.894531 298.984375 208.351562 301.582031 210.949219 C 304.179688 213.546875 305.636719 217.066406 305.636719 220.738281 C 305.636719 224.410156 304.179688 227.929688 301.582031 230.527344 C 298.984375 233.125 295.464844 234.582031 291.792969 234.582031 L 77.824219 234.582031 C 74.152344 234.582031 70.628906 233.125 68.03125 230.527344 C 65.4375 227.929688 63.976562 224.410156 63.976562 220.738281 C 63.976562 217.066406 65.4375 213.546875 68.03125 210.949219 C 70.628906 208.351562 74.152344 206.894531 77.824219 206.894531 Z M 77.824219 206.894531 " clip-rule="nonzero"/></clipPath></defs><rect x="-37.5" width="450" fill="#ffffff" y="-37.499999" height="449.999989" fill-opacity="1"/><rect x="-37.5" width="450" fill="#ffffff" y="-37.499999" height="449.999989" fill-opacity="1"/><path stroke-linecap="butt" transform="matrix(0.796661, 0, 0, 0.796661, 86.496628, -0.962274)" fill="none" stroke-linejoin="miter" d="M 197.503418 124.26058 C 195.703915 126.560218 193.507246 128.80592 190.913411 131.002589 C 188.716742 132.895255 185.995422 134.895793 182.754354 136.989493 C 179.508383 139.088096 175.742665 140.980762 171.447392 142.6822 C 172.844827 140.882697 172.972312 138.960611 171.820042 136.915944 C 170.672674 134.866373 168.152389 132.998224 164.259185 131.301689 C 160.365981 129.605154 155.099859 128.20772 148.465722 127.109385 C 141.826682 126.011051 133.716658 125.461883 124.130747 125.461883 C 118.541009 125.461883 112.524685 126.035567 106.08668 127.182934 C 99.648674 128.330302 93.284218 130.30142 86.998214 133.096289 C 80.707306 135.891158 74.64195 139.607844 68.802144 144.251249 C 62.962339 148.894655 57.799186 154.685428 53.307782 161.623568 C 48.816378 168.561708 45.246791 176.794314 42.59902 186.326289 C 39.956153 195.863167 38.632267 206.866126 38.632267 219.344971 C 38.632267 231.823817 40.152284 242.802259 43.19722 252.285201 C 46.242157 261.768143 50.287362 269.932103 55.327933 276.767275 C 60.368504 283.607349 66.13476 289.295153 72.621799 293.840493 C 79.108837 298.38093 85.747877 302.024066 92.538919 304.769902 C 99.325058 307.515739 105.988614 309.437824 112.524685 310.536159 C 119.06566 311.634493 124.979015 312.183661 130.269653 312.183661 C 136.359526 312.080692 142.699466 311.634493 149.289473 310.835259 C 154.977277 310.13409 161.238765 309.114208 168.078839 307.765806 C 174.918914 306.417404 181.631503 304.446286 188.216607 301.847548 C 178.537534 309.633955 169.549823 315.57673 161.268185 319.666065 C 152.981643 323.760303 145.69537 326.805239 139.404462 328.800874 C 132.118189 331.095609 125.430116 332.394978 119.340244 332.694078 C 104.566663 332.694078 90.64135 330.521925 77.564304 326.182523 C 64.487259 321.838218 53.033198 315.552214 43.19722 307.314704 C 33.366145 299.077195 25.604254 288.971537 19.91645 276.992825 C 14.223743 265.014114 11.379841 251.387901 11.379841 236.114186 C 11.379841 226.631244 12.277141 217.824955 14.076645 209.685511 C 15.871245 201.550971 18.244432 194.08818 21.1864 187.302041 C 24.13327 180.511 27.45279 174.39661 31.14496 168.958874 C 34.837129 163.516234 38.607751 158.72573 42.451922 154.582459 C 46.291189 150.439188 50.037295 146.972569 53.680431 144.1777 C 57.323568 141.382831 60.491086 139.235195 63.18789 137.739695 C 65.781724 136.239291 69.101244 134.542757 73.14645 132.645187 C 77.186752 130.752522 81.629123 128.830436 86.473563 126.883834 C 91.313099 124.937232 96.432123 123.015147 101.820827 121.117578 C 107.209531 119.220009 112.701204 117.523474 118.290942 116.027974 C 123.88068 114.527571 129.347837 113.33117 134.687508 112.43387 C 140.027179 111.53657 145.092266 111.085469 149.887673 111.085469 C 160.567016 111.085469 169.20169 111.585603 175.791698 112.580969 C 182.376802 113.581238 187.392856 114.802154 190.839862 116.253525 C 194.281964 117.699992 196.4296 119.170976 197.277867 120.666476 C 198.126135 122.16688 198.199684 123.36328 197.503418 124.26058 Z M 197.503418 124.26058 " stroke="#ffffff" stroke-width="23.000025" stroke-opacity="1" stroke-miterlimit="4"/><g fill="#000000" fill-opacity="1"><g transform="translate(86.496628, 261.935765)"><g><path d="M 157.34375 -163.890625 C 155.90625 -162.066406 154.15625 -160.28125 152.09375 -158.53125 C 150.34375 -157.019531 148.175781 -155.425781 145.59375 -153.75 C 143.007812 -152.082031 140.003906 -150.570312 136.578125 -149.21875 C 137.691406 -150.65625 137.789062 -152.1875 136.875 -153.8125 C 135.96875 -155.445312 133.960938 -156.9375 130.859375 -158.28125 C 127.753906 -159.632812 123.554688 -160.75 118.265625 -161.625 C 112.984375 -162.5 106.523438 -162.9375 98.890625 -162.9375 C 94.429688 -162.9375 89.632812 -162.476562 84.5 -161.5625 C 79.375 -160.65625 74.304688 -159.085938 69.296875 -156.859375 C 64.296875 -154.628906 59.46875 -151.664062 54.8125 -147.96875 C 50.15625 -144.269531 46.035156 -139.65625 42.453125 -134.125 C 38.878906 -128.601562 36.039062 -122.046875 33.9375 -114.453125 C 31.832031 -106.859375 30.78125 -98.09375 30.78125 -88.15625 C 30.78125 -78.207031 31.988281 -69.457031 34.40625 -61.90625 C 36.832031 -54.351562 40.050781 -47.851562 44.0625 -42.40625 C 48.082031 -36.957031 52.675781 -32.421875 57.84375 -28.796875 C 63.019531 -25.179688 68.3125 -22.28125 73.71875 -20.09375 C 79.125 -17.90625 84.429688 -16.375 89.640625 -15.5 C 94.847656 -14.625 99.5625 -14.1875 103.78125 -14.1875 C 108.632812 -14.269531 113.679688 -14.628906 118.921875 -15.265625 C 123.460938 -15.828125 128.453125 -16.644531 133.890625 -17.71875 C 139.335938 -18.789062 144.6875 -20.359375 149.9375 -22.421875 C 142.226562 -16.222656 135.070312 -11.492188 128.46875 -8.234375 C 121.863281 -4.972656 116.0625 -2.546875 111.0625 -0.953125 C 105.25 0.878906 99.921875 1.910156 95.078125 2.140625 C 83.304688 2.140625 72.207031 0.410156 61.78125 -3.046875 C 51.363281 -6.503906 42.238281 -11.507812 34.40625 -18.0625 C 26.582031 -24.625 20.398438 -32.675781 15.859375 -42.21875 C 11.328125 -51.769531 9.0625 -62.628906 9.0625 -74.796875 C 9.0625 -82.347656 9.773438 -89.363281 11.203125 -95.84375 C 12.640625 -102.320312 14.53125 -108.265625 16.875 -113.671875 C 19.21875 -119.085938 21.859375 -123.960938 24.796875 -128.296875 C 27.742188 -132.628906 30.75 -136.441406 33.8125 -139.734375 C 36.875 -143.035156 39.859375 -145.800781 42.765625 -148.03125 C 45.671875 -150.257812 48.195312 -151.96875 50.34375 -153.15625 C 52.40625 -154.351562 55.046875 -155.707031 58.265625 -157.21875 C 61.492188 -158.726562 65.035156 -160.257812 68.890625 -161.8125 C 72.742188 -163.363281 76.816406 -164.894531 81.109375 -166.40625 C 85.410156 -167.914062 89.785156 -169.265625 94.234375 -170.453125 C 98.691406 -171.648438 103.046875 -172.601562 107.296875 -173.3125 C 111.546875 -174.03125 115.582031 -174.390625 119.40625 -174.390625 C 127.914062 -174.390625 134.796875 -173.992188 140.046875 -173.203125 C 145.296875 -172.410156 149.289062 -171.4375 152.03125 -170.28125 C 154.769531 -169.125 156.476562 -167.945312 157.15625 -166.75 C 157.832031 -165.5625 157.894531 -164.609375 157.34375 -163.890625 Z M 157.34375 -163.890625 "/></g></g></g><path stroke-linecap="butt" transform="matrix(0.638842, 0, 0, 0.638842, 150.087489, 97.059054)" fill="none" stroke-linejoin="miter" d="M 224.757108 213.807613 C 224.757108 226.483127 222.659809 238.210881 218.465211 248.990876 C 214.270612 259.770871 208.730808 269.609222 201.845797 278.493699 C 194.954671 287.372062 187.097442 295.235405 178.261882 302.071499 C 169.426321 308.913708 160.395095 314.649179 151.155972 319.296256 C 141.922965 323.937218 132.867279 327.453099 123.982802 329.850012 C 115.098325 332.246925 107.112691 333.445382 100.025899 333.445382 C 94.033616 333.445382 87.692802 332.522081 81.009571 330.67548 C 74.320227 328.828878 67.704257 326.083434 61.167777 322.439147 C 54.631296 318.794861 48.363857 314.251732 42.377689 308.80976 C 36.385405 303.373904 31.120757 297.082006 26.577628 289.946297 C 22.034499 282.810589 18.41467 274.824954 15.724257 265.989394 C 13.02773 257.153833 11.676409 247.492805 11.676409 237.012424 C 11.676409 223.040621 13.626958 210.26116 17.521942 198.680156 C 21.410812 187.099151 26.577628 176.692145 33.016275 167.459137 C 39.454922 158.226129 46.792411 150.16712 55.028744 143.275994 C 63.265076 136.390983 71.697074 130.673856 80.330854 126.136841 C 88.970748 121.593712 97.476121 118.200124 105.865318 115.94996 C 114.248399 113.705911 121.78767 112.580829 128.4709 112.580829 C 135.563807 112.580829 142.846265 113.332922 150.336619 114.830993 C 157.820859 116.329064 165.13389 118.719862 172.269599 122.015618 C 179.411422 125.311374 186.149683 129.579347 192.484383 134.819538 C 198.825197 140.059728 204.38946 146.425 209.183286 153.90924 C 213.970998 161.399594 217.768149 170.106748 220.56251 180.036817 C 223.35687 189.973001 224.757108 201.223819 224.757108 213.807613 Z M 197.504448 222.936673 C 197.504448 211.954897 196.153127 202.00037 193.4566 193.066976 C 190.766187 184.133582 187.146359 176.196864 182.60323 169.256822 C 178.060101 162.322895 172.81991 156.330611 166.882658 151.292202 C 160.939292 146.247678 154.751342 142.083652 148.312695 138.787897 C 141.874048 135.492141 135.362026 133.070769 128.770514 131.523782 C 122.185117 129.976794 115.948251 129.206358 110.053801 129.206358 C 100.674044 129.206358 91.587786 130.97347 82.801142 134.519923 C 74.020613 138.060262 66.206186 143.606181 59.370092 151.139337 C 52.533997 158.678608 47.067567 168.382438 42.976917 180.263057 C 38.880152 192.143675 36.837884 206.366176 36.837884 222.936673 C 36.837884 234.016283 38.433788 243.976925 41.625596 252.812485 C 44.823518 261.648046 49.012002 269.407441 54.203276 276.096786 C 59.39455 282.786131 65.258427 288.521602 71.801022 293.315428 C 78.337502 298.10314 84.97793 301.998124 91.716192 304.994266 C 98.454453 307.990407 104.990933 310.18554 111.331747 311.579663 C 117.666447 312.9799 123.181793 313.676962 127.877786 313.676962 C 132.567665 313.676962 137.5327 312.9799 142.77289 311.579663 C 148.013081 310.18554 153.228813 307.965949 158.420087 304.920891 C 163.611361 301.875833 168.551937 297.95639 173.247931 293.162564 C 177.937809 288.374852 182.077377 282.633266 185.672746 275.943921 C 189.268116 269.254577 192.135852 261.51964 194.282068 252.732996 C 196.428283 243.952467 197.504448 234.016283 197.504448 222.936673 Z M 197.504448 222.936673 " stroke="#ffffff" stroke-width="23.000025" stroke-opacity="1" stroke-miterlimit="4"/><g fill="#000000" fill-opacity="1"><g transform="translate(150.087489, 307.877069)"><g><path d="M 143.578125 -74.234375 C 143.578125 -66.128906 142.238281 -58.632812 139.5625 -51.75 C 136.882812 -44.863281 133.34375 -38.582031 128.9375 -32.90625 C 124.539062 -27.226562 119.519531 -22.203125 113.875 -17.828125 C 108.238281 -13.460938 102.46875 -9.796875 96.5625 -6.828125 C 90.664062 -3.867188 84.878906 -1.625 79.203125 -0.09375 C 73.523438 1.4375 68.425781 2.203125 63.90625 2.203125 C 60.070312 2.203125 56.019531 1.609375 51.75 0.421875 C 47.476562 -0.753906 43.253906 -2.503906 39.078125 -4.828125 C 34.898438 -7.160156 30.894531 -10.0625 27.0625 -13.53125 C 23.238281 -17.007812 19.875 -21.023438 16.96875 -25.578125 C 14.070312 -30.140625 11.765625 -35.242188 10.046875 -40.890625 C 8.328125 -46.535156 7.46875 -52.707031 7.46875 -59.40625 C 7.46875 -68.332031 8.707031 -76.492188 11.1875 -83.890625 C 13.675781 -91.285156 16.976562 -97.929688 21.09375 -103.828125 C 25.207031 -109.734375 29.894531 -114.882812 35.15625 -119.28125 C 40.414062 -123.6875 45.800781 -127.335938 51.3125 -130.234375 C 56.832031 -133.140625 62.269531 -135.304688 67.625 -136.734375 C 72.988281 -138.171875 77.804688 -138.890625 82.078125 -138.890625 C 86.597656 -138.890625 91.25 -138.410156 96.03125 -137.453125 C 100.820312 -136.503906 105.492188 -134.976562 110.046875 -132.875 C 114.609375 -130.769531 118.914062 -128.039062 122.96875 -124.6875 C 127.019531 -121.34375 130.570312 -117.273438 133.625 -112.484375 C 136.6875 -107.703125 139.109375 -102.140625 140.890625 -95.796875 C 142.679688 -89.453125 143.578125 -82.265625 143.578125 -74.234375 Z M 126.171875 -68.390625 C 126.171875 -75.410156 125.304688 -81.773438 123.578125 -87.484375 C 121.859375 -93.191406 119.546875 -98.257812 116.640625 -102.6875 C 113.742188 -107.125 110.398438 -110.953125 106.609375 -114.171875 C 102.816406 -117.390625 98.863281 -120.050781 94.75 -122.15625 C 90.632812 -124.257812 86.472656 -125.804688 82.265625 -126.796875 C 78.054688 -127.785156 74.070312 -128.28125 70.3125 -128.28125 C 64.3125 -128.28125 58.503906 -127.144531 52.890625 -124.875 C 47.285156 -122.613281 42.296875 -119.078125 37.921875 -114.265625 C 33.554688 -109.453125 30.066406 -103.25 27.453125 -95.65625 C 24.835938 -88.070312 23.53125 -78.984375 23.53125 -68.390625 C 23.53125 -61.316406 24.550781 -54.957031 26.59375 -49.3125 C 28.632812 -43.664062 31.3125 -38.707031 34.625 -34.4375 C 37.945312 -30.164062 41.695312 -26.5 45.875 -23.4375 C 50.050781 -20.375 54.289062 -17.882812 58.59375 -15.96875 C 62.894531 -14.0625 67.070312 -12.660156 71.125 -11.765625 C 75.175781 -10.867188 78.695312 -10.421875 81.6875 -10.421875 C 84.6875 -10.421875 87.859375 -10.867188 91.203125 -11.765625 C 94.554688 -12.660156 97.890625 -14.078125 101.203125 -16.015625 C 104.515625 -17.960938 107.671875 -20.46875 110.671875 -23.53125 C 113.671875 -26.59375 116.316406 -30.257812 118.609375 -34.53125 C 120.910156 -38.800781 122.742188 -43.742188 124.109375 -49.359375 C 125.484375 -54.972656 126.171875 -61.316406 126.171875 -68.390625 Z M 126.171875 -68.390625 "/></g></g></g><g clip-path="url(#1be7f65ac9)"><g clip-path="url(#b3d2bead3c)"><path fill="#ffffff" d="M 63.976562 206.894531 L 305.636719 206.894531 L 305.636719 234.582031 L 63.976562 234.582031 Z M 63.976562 206.894531 " fill-opacity="1" fill-rule="nonzero"/></g></g><g fill="#000000" fill-opacity="1"><g transform="translate(100.630648, 227.709646)"><g><path d="M 14.078125 -14.671875 C 13.953125 -14.503906 13.796875 -14.34375 13.609375 -14.1875 C 13.453125 -14.050781 13.257812 -13.90625 13.03125 -13.75 C 12.800781 -13.601562 12.53125 -13.472656 12.21875 -13.359375 C 12.320312 -13.484375 12.332031 -13.617188 12.25 -13.765625 C 12.164062 -13.910156 11.984375 -14.039062 11.703125 -14.15625 C 11.429688 -14.28125 11.054688 -14.378906 10.578125 -14.453125 C 10.109375 -14.535156 9.53125 -14.578125 8.84375 -14.578125 C 8.445312 -14.578125 8.019531 -14.535156 7.5625 -14.453125 C 7.101562 -14.367188 6.648438 -14.226562 6.203125 -14.03125 C 5.753906 -13.832031 5.320312 -13.566406 4.90625 -13.234375 C 4.488281 -12.910156 4.117188 -12.5 3.796875 -12 C 3.472656 -11.507812 3.21875 -10.921875 3.03125 -10.234375 C 2.84375 -9.554688 2.75 -8.773438 2.75 -7.890625 C 2.75 -6.992188 2.859375 -6.207031 3.078125 -5.53125 C 3.296875 -4.863281 3.582031 -4.285156 3.9375 -3.796875 C 4.300781 -3.304688 4.710938 -2.898438 5.171875 -2.578125 C 5.640625 -2.253906 6.113281 -1.992188 6.59375 -1.796875 C 7.082031 -1.597656 7.554688 -1.457031 8.015625 -1.375 C 8.484375 -1.300781 8.90625 -1.265625 9.28125 -1.265625 C 9.71875 -1.273438 10.171875 -1.304688 10.640625 -1.359375 C 11.046875 -1.410156 11.492188 -1.484375 11.984375 -1.578125 C 12.472656 -1.679688 12.953125 -1.820312 13.421875 -2 C 12.722656 -1.445312 12.078125 -1.023438 11.484375 -0.734375 C 10.898438 -0.441406 10.382812 -0.222656 9.9375 -0.078125 C 9.414062 0.078125 8.9375 0.164062 8.5 0.1875 C 7.445312 0.1875 6.453125 0.0351562 5.515625 -0.265625 C 4.585938 -0.578125 3.773438 -1.023438 3.078125 -1.609375 C 2.378906 -2.203125 1.828125 -2.925781 1.421875 -3.78125 C 1.015625 -4.632812 0.8125 -5.601562 0.8125 -6.6875 C 0.8125 -7.363281 0.875 -7.992188 1 -8.578125 C 1.132812 -9.160156 1.304688 -9.691406 1.515625 -10.171875 C 1.722656 -10.648438 1.957031 -11.082031 2.21875 -11.46875 C 2.476562 -11.863281 2.742188 -12.207031 3.015625 -12.5 C 3.296875 -12.800781 3.566406 -13.050781 3.828125 -13.25 C 4.085938 -13.445312 4.3125 -13.597656 4.5 -13.703125 C 4.6875 -13.804688 4.921875 -13.925781 5.203125 -14.0625 C 5.492188 -14.195312 5.8125 -14.332031 6.15625 -14.46875 C 6.507812 -14.613281 6.875 -14.753906 7.25 -14.890625 C 7.632812 -15.023438 8.023438 -15.144531 8.421875 -15.25 C 8.828125 -15.351562 9.21875 -15.4375 9.59375 -15.5 C 9.976562 -15.570312 10.34375 -15.609375 10.6875 -15.609375 C 11.445312 -15.609375 12.0625 -15.570312 12.53125 -15.5 C 13 -15.425781 13.351562 -15.335938 13.59375 -15.234375 C 13.84375 -15.128906 14 -15.023438 14.0625 -14.921875 C 14.125 -14.816406 14.128906 -14.734375 14.078125 -14.671875 Z M 14.078125 -14.671875 "/></g></g></g><g fill="#000000" fill-opacity="1"><g transform="translate(116.50015, 227.709646)"><g><path d="M 6.171875 -15.890625 C 5.835938 -15.671875 5.535156 -15.488281 5.265625 -15.34375 C 4.992188 -15.195312 4.738281 -15.070312 4.5 -14.96875 C 4.488281 -14.363281 4.472656 -13.796875 4.453125 -13.265625 C 4.441406 -12.742188 4.429688 -12.25 4.421875 -11.78125 C 4.410156 -11.320312 4.398438 -10.882812 4.390625 -10.46875 C 4.390625 -10.0625 4.382812 -9.664062 4.375 -9.28125 C 4.75 -9.363281 5.140625 -9.40625 5.546875 -9.40625 C 5.941406 -9.40625 6.394531 -9.398438 6.90625 -9.390625 C 7.425781 -9.378906 7.960938 -9.363281 8.515625 -9.34375 C 9.066406 -9.320312 9.625 -9.304688 10.1875 -9.296875 C 10.75 -9.285156 11.273438 -9.28125 11.765625 -9.28125 L 12.265625 -9.28125 L 12.265625 -14.59375 C 12.046875 -14.570312 11.773438 -14.546875 11.453125 -14.515625 C 11.140625 -14.484375 10.785156 -14.441406 10.390625 -14.390625 C 10.773438 -14.703125 11.117188 -14.9375 11.421875 -15.09375 C 11.722656 -15.257812 11.984375 -15.378906 12.203125 -15.453125 C 12.460938 -15.535156 12.691406 -15.585938 12.890625 -15.609375 C 13.148438 -15.609375 13.425781 -15.613281 13.71875 -15.625 C 14.019531 -15.632812 14.3125 -15.648438 14.59375 -15.671875 C 14.882812 -15.703125 15.144531 -15.734375 15.375 -15.765625 C 15.601562 -15.804688 15.773438 -15.847656 15.890625 -15.890625 C 15.554688 -15.671875 15.253906 -15.488281 14.984375 -15.34375 C 14.722656 -15.195312 14.472656 -15.070312 14.234375 -14.96875 C 14.191406 -13.675781 14.160156 -12.519531 14.140625 -11.5 C 14.117188 -10.488281 14.097656 -9.585938 14.078125 -8.796875 C 14.066406 -8.015625 14.054688 -7.332031 14.046875 -6.75 C 14.035156 -6.175781 14.023438 -5.6875 14.015625 -5.28125 C 13.992188 -4.332031 13.988281 -3.6875 14 -3.34375 C 13.988281 -3.082031 13.953125 -2.820312 13.890625 -2.5625 C 13.828125 -2.34375 13.738281 -2.101562 13.625 -1.84375 C 13.507812 -1.59375 13.347656 -1.363281 13.140625 -1.15625 C 13.265625 -1.144531 13.382812 -1.132812 13.5 -1.125 C 13.625 -1.125 13.75 -1.125 13.875 -1.125 C 14.207031 -1.125 14.503906 -1.140625 14.765625 -1.171875 C 15.035156 -1.210938 15.269531 -1.25 15.46875 -1.28125 C 15.664062 -1.3125 15.820312 -1.34375 15.9375 -1.375 C 16.050781 -1.414062 16.125 -1.445312 16.15625 -1.46875 C 15.769531 -1.207031 15.453125 -0.984375 15.203125 -0.796875 C 14.960938 -0.609375 14.738281 -0.457031 14.53125 -0.34375 C 14.332031 -0.226562 14.140625 -0.140625 13.953125 -0.078125 C 13.765625 -0.0234375 13.539062 0 13.28125 0 C 12.945312 0 12.660156 -0.0078125 12.421875 -0.03125 C 12.179688 -0.0625 11.941406 -0.078125 11.703125 -0.078125 C 11.578125 -0.078125 11.453125 -0.0703125 11.328125 -0.0625 C 11.203125 -0.0507812 11.0625 -0.03125 10.90625 0 C 11.132812 -0.101562 11.332031 -0.210938 11.5 -0.328125 C 11.675781 -0.453125 11.816406 -0.617188 11.921875 -0.828125 C 12.035156 -1.035156 12.117188 -1.3125 12.171875 -1.65625 C 12.234375 -2 12.265625 -2.460938 12.265625 -3.046875 L 12.265625 -8.59375 C 12.054688 -8.550781 11.820312 -8.515625 11.5625 -8.484375 C 11.3125 -8.453125 11.019531 -8.4375 10.6875 -8.4375 C 10.21875 -8.4375 9.675781 -8.453125 9.0625 -8.484375 C 8.445312 -8.515625 7.769531 -8.53125 7.03125 -8.53125 C 6.59375 -8.53125 6.148438 -8.519531 5.703125 -8.5 C 5.265625 -8.476562 4.816406 -8.441406 4.359375 -8.390625 C 4.328125 -7.347656 4.304688 -6.5 4.296875 -5.84375 C 4.285156 -5.1875 4.273438 -4.671875 4.265625 -4.296875 C 4.265625 -3.867188 4.265625 -3.550781 4.265625 -3.34375 C 4.253906 -3.082031 4.21875 -2.820312 4.15625 -2.5625 C 4.09375 -2.34375 4.003906 -2.101562 3.890625 -1.84375 C 3.773438 -1.59375 3.613281 -1.363281 3.40625 -1.15625 C 3.539062 -1.144531 3.664062 -1.132812 3.78125 -1.125 C 3.90625 -1.125 4.03125 -1.125 4.15625 -1.125 C 4.488281 -1.125 4.785156 -1.140625 5.046875 -1.171875 C 5.316406 -1.210938 5.550781 -1.25 5.75 -1.28125 C 5.945312 -1.3125 6.097656 -1.34375 6.203125 -1.375 C 6.316406 -1.414062 6.390625 -1.445312 6.421875 -1.46875 C 6.046875 -1.207031 5.734375 -0.984375 5.484375 -0.796875 C 5.234375 -0.609375 5.007812 -0.457031 4.8125 -0.34375 C 4.613281 -0.226562 4.421875 -0.140625 4.234375 -0.078125 C 4.046875 -0.0234375 3.820312 0 3.5625 0 C 3.21875 0 2.925781 -0.0078125 2.6875 -0.03125 C 2.445312 -0.0625 2.207031 -0.078125 1.96875 -0.078125 C 1.84375 -0.078125 1.71875 -0.0703125 1.59375 -0.0625 C 1.46875 -0.0507812 1.332031 -0.03125 1.1875 0 C 1.382812 -0.164062 1.5625 -0.347656 1.71875 -0.546875 C 1.882812 -0.753906 2.023438 -1.003906 2.140625 -1.296875 C 2.265625 -1.585938 2.359375 -1.9375 2.421875 -2.34375 C 2.484375 -2.75 2.515625 -3.242188 2.515625 -3.828125 L 2.515625 -8.0625 C 2.359375 -8.03125 2.195312 -7.992188 2.03125 -7.953125 C 1.875 -7.910156 1.71875 -7.859375 1.5625 -7.796875 C 1.71875 -7.941406 1.875 -8.070312 2.03125 -8.1875 C 2.195312 -8.3125 2.359375 -8.429688 2.515625 -8.546875 L 2.515625 -14.59375 C 2.296875 -14.570312 2.03125 -14.546875 1.71875 -14.515625 C 1.40625 -14.484375 1.050781 -14.441406 0.65625 -14.390625 C 1.039062 -14.703125 1.382812 -14.9375 1.6875 -15.09375 C 2 -15.257812 2.265625 -15.378906 2.484375 -15.453125 C 2.742188 -15.535156 2.972656 -15.585938 3.171875 -15.609375 C 3.421875 -15.609375 3.695312 -15.613281 4 -15.625 C 4.300781 -15.632812 4.59375 -15.648438 4.875 -15.671875 C 5.15625 -15.703125 5.410156 -15.734375 5.640625 -15.765625 C 5.878906 -15.804688 6.054688 -15.847656 6.171875 -15.890625 Z M 6.421875 -1.46875 C 6.429688 -1.476562 6.441406 -1.484375 6.453125 -1.484375 Z M 16.15625 -1.46875 C 16.164062 -1.476562 16.175781 -1.484375 16.1875 -1.484375 Z M 16.15625 -1.46875 "/></g></g></g><g fill="#000000" fill-opacity="1"><g transform="translate(134.686116, 227.709646)"><g><path d="M 6.078125 -15.40625 C 5.785156 -15.207031 5.46875 -15 5.125 -14.78125 C 4.78125 -14.5625 4.445312 -14.382812 4.125 -14.25 C 4.101562 -13.34375 4.082031 -12.515625 4.0625 -11.765625 C 4.039062 -11.015625 4.019531 -10.335938 4 -9.734375 C 3.988281 -9.140625 3.976562 -8.609375 3.96875 -8.140625 C 3.957031 -7.679688 3.953125 -7.273438 3.953125 -6.921875 C 3.929688 -6.109375 3.925781 -5.488281 3.9375 -5.0625 C 3.925781 -4.5625 4 -4.070312 4.15625 -3.59375 C 4.3125 -3.113281 4.5625 -2.6875 4.90625 -2.3125 C 5.257812 -1.9375 5.722656 -1.632812 6.296875 -1.40625 C 6.867188 -1.175781 7.5625 -1.0625 8.375 -1.0625 C 8.8125 -1.082031 9.269531 -1.148438 9.75 -1.265625 C 10.15625 -1.359375 10.601562 -1.503906 11.09375 -1.703125 C 11.582031 -1.898438 12.0625 -2.191406 12.53125 -2.578125 L 12.53125 -14.125 C 12.425781 -14.132812 12.320312 -14.140625 12.21875 -14.140625 C 12.113281 -14.140625 12.007812 -14.140625 11.90625 -14.140625 C 11.707031 -14.140625 11.507812 -14.132812 11.3125 -14.125 C 11.125 -14.113281 10.945312 -14.097656 10.78125 -14.078125 C 11.113281 -14.378906 11.410156 -14.609375 11.671875 -14.765625 C 11.929688 -14.921875 12.15625 -15.035156 12.34375 -15.109375 C 12.550781 -15.191406 12.734375 -15.242188 12.890625 -15.265625 C 13.023438 -15.265625 13.195312 -15.265625 13.40625 -15.265625 C 13.613281 -15.273438 13.832031 -15.28125 14.0625 -15.28125 C 14.289062 -15.289062 14.523438 -15.300781 14.765625 -15.3125 C 15.003906 -15.320312 15.222656 -15.332031 15.421875 -15.34375 C 15.628906 -15.351562 15.804688 -15.363281 15.953125 -15.375 C 16.097656 -15.382812 16.195312 -15.394531 16.25 -15.40625 C 16 -15.226562 15.71875 -15.039062 15.40625 -14.84375 C 15.09375 -14.65625 14.796875 -14.492188 14.515625 -14.359375 L 14.515625 -3.359375 C 14.503906 -3.015625 14.484375 -2.691406 14.453125 -2.390625 C 14.421875 -2.128906 14.375 -1.875 14.3125 -1.625 C 14.25 -1.382812 14.15625 -1.21875 14.03125 -1.125 C 14.4375 -1.070312 14.789062 -1.035156 15.09375 -1.015625 C 15.394531 -1.003906 15.660156 -1 15.890625 -1 C 16.296875 -1 16.585938 -1.015625 16.765625 -1.046875 C 16.941406 -1.078125 17.039062 -1.097656 17.0625 -1.109375 C 16.726562 -0.921875 16.421875 -0.753906 16.140625 -0.609375 C 15.867188 -0.472656 15.609375 -0.359375 15.359375 -0.265625 C 15.117188 -0.179688 14.878906 -0.113281 14.640625 -0.0625 C 14.410156 -0.0195312 14.179688 0 13.953125 0 L 11.875 0 C 12.03125 -0.0507812 12.148438 -0.171875 12.234375 -0.359375 C 12.328125 -0.554688 12.398438 -0.757812 12.453125 -0.96875 C 12.492188 -1.207031 12.519531 -1.46875 12.53125 -1.75 L 12.53125 -2.25 C 11.78125 -1.632812 11.0625 -1.164062 10.375 -0.84375 C 9.6875 -0.519531 9.078125 -0.28125 8.546875 -0.125 C 7.929688 0.0507812 7.347656 0.148438 6.796875 0.171875 C 5.898438 0.171875 5.144531 0.0507812 4.53125 -0.1875 C 3.925781 -0.425781 3.441406 -0.757812 3.078125 -1.1875 C 2.710938 -1.613281 2.453125 -2.125 2.296875 -2.71875 C 2.148438 -3.320312 2.085938 -3.984375 2.109375 -4.703125 C 2.097656 -5.285156 2.097656 -6.023438 2.109375 -6.921875 C 2.117188 -7.691406 2.128906 -8.671875 2.140625 -9.859375 C 2.160156 -11.046875 2.191406 -12.472656 2.234375 -14.140625 L 1.75 -14.140625 C 1.550781 -14.140625 1.351562 -14.132812 1.15625 -14.125 C 0.957031 -14.113281 0.773438 -14.097656 0.609375 -14.078125 C 0.941406 -14.378906 1.238281 -14.609375 1.5 -14.765625 C 1.757812 -14.921875 1.984375 -15.035156 2.171875 -15.109375 C 2.378906 -15.191406 2.566406 -15.242188 2.734375 -15.265625 C 2.867188 -15.265625 3.035156 -15.265625 3.234375 -15.265625 C 3.441406 -15.273438 3.660156 -15.28125 3.890625 -15.28125 C 4.128906 -15.289062 4.367188 -15.300781 4.609375 -15.3125 C 4.847656 -15.320312 5.066406 -15.332031 5.265625 -15.34375 C 5.472656 -15.351562 5.644531 -15.363281 5.78125 -15.375 C 5.925781 -15.382812 6.023438 -15.394531 6.078125 -15.40625 Z M 17.0625 -1.109375 L 17.0625 -1.125 L 17.078125 -1.125 C 17.085938 -1.125 17.09375 -1.125 17.09375 -1.125 Z M 17.0625 -1.109375 "/></g></g></g><g fill="#000000" fill-opacity="1"><g transform="translate(153.288406, 227.709646)"><g><path d="M 14.078125 -14.671875 C 13.953125 -14.503906 13.796875 -14.34375 13.609375 -14.1875 C 13.453125 -14.050781 13.257812 -13.90625 13.03125 -13.75 C 12.800781 -13.601562 12.53125 -13.472656 12.21875 -13.359375 C 12.320312 -13.484375 12.332031 -13.617188 12.25 -13.765625 C 12.164062 -13.910156 11.984375 -14.039062 11.703125 -14.15625 C 11.429688 -14.28125 11.054688 -14.378906 10.578125 -14.453125 C 10.109375 -14.535156 9.53125 -14.578125 8.84375 -14.578125 C 8.445312 -14.578125 8.019531 -14.535156 7.5625 -14.453125 C 7.101562 -14.367188 6.648438 -14.226562 6.203125 -14.03125 C 5.753906 -13.832031 5.320312 -13.566406 4.90625 -13.234375 C 4.488281 -12.910156 4.117188 -12.5 3.796875 -12 C 3.472656 -11.507812 3.21875 -10.921875 3.03125 -10.234375 C 2.84375 -9.554688 2.75 -8.773438 2.75 -7.890625 C 2.75 -6.992188 2.859375 -6.207031 3.078125 -5.53125 C 3.296875 -4.863281 3.582031 -4.285156 3.9375 -3.796875 C 4.300781 -3.304688 4.710938 -2.898438 5.171875 -2.578125 C 5.640625 -2.253906 6.113281 -1.992188 6.59375 -1.796875 C 7.082031 -1.597656 7.554688 -1.457031 8.015625 -1.375 C 8.484375 -1.300781 8.90625 -1.265625 9.28125 -1.265625 C 9.71875 -1.273438 10.171875 -1.304688 10.640625 -1.359375 C 11.046875 -1.410156 11.492188 -1.484375 11.984375 -1.578125 C 12.472656 -1.679688 12.953125 -1.820312 13.421875 -2 C 12.722656 -1.445312 12.078125 -1.023438 11.484375 -0.734375 C 10.898438 -0.441406 10.382812 -0.222656 9.9375 -0.078125 C 9.414062 0.078125 8.9375 0.164062 8.5 0.1875 C 7.445312 0.1875 6.453125 0.0351562 5.515625 -0.265625 C 4.585938 -0.578125 3.773438 -1.023438 3.078125 -1.609375 C 2.378906 -2.203125 1.828125 -2.925781 1.421875 -3.78125 C 1.015625 -4.632812 0.8125 -5.601562 0.8125 -6.6875 C 0.8125 -7.363281 0.875 -7.992188 1 -8.578125 C 1.132812 -9.160156 1.304688 -9.691406 1.515625 -10.171875 C 1.722656 -10.648438 1.957031 -11.082031 2.21875 -11.46875 C 2.476562 -11.863281 2.742188 -12.207031 3.015625 -12.5 C 3.296875 -12.800781 3.566406 -13.050781 3.828125 -13.25 C 4.085938 -13.445312 4.3125 -13.597656 4.5 -13.703125 C 4.6875 -13.804688 4.921875 -13.925781 5.203125 -14.0625 C 5.492188 -14.195312 5.8125 -14.332031 6.15625 -14.46875 C 6.507812 -14.613281 6.875 -14.753906 7.25 -14.890625 C 7.632812 -15.023438 8.023438 -15.144531 8.421875 -15.25 C 8.828125 -15.351562 9.21875 -15.4375 9.59375 -15.5 C 9.976562 -15.570312 10.34375 -15.609375 10.6875 -15.609375 C 11.445312 -15.609375 12.0625 -15.570312 12.53125 -15.5 C 13 -15.425781 13.351562 -15.335938 13.59375 -15.234375 C 13.84375 -15.128906 14 -15.023438 14.0625 -14.921875 C 14.125 -14.816406 14.128906 -14.734375 14.078125 -14.671875 Z M 14.078125 -14.671875 "/></g></g></g><g fill="#000000" fill-opacity="1"><g transform="translate(169.157908, 227.709646)"><g><path d="M 13.8125 -15.8125 C 13.382812 -15.507812 13.003906 -15.269531 12.671875 -15.09375 C 12.347656 -14.925781 12.03125 -14.796875 11.71875 -14.703125 C 11.351562 -14.128906 10.957031 -13.582031 10.53125 -13.0625 C 10.101562 -12.550781 9.65625 -12.050781 9.1875 -11.5625 C 8.71875 -11.082031 8.242188 -10.613281 7.765625 -10.15625 C 7.285156 -9.695312 6.816406 -9.238281 6.359375 -8.78125 C 6.660156 -8.351562 7.003906 -7.875 7.390625 -7.34375 C 7.773438 -6.820312 8.1875 -6.296875 8.625 -5.765625 C 9.070312 -5.234375 9.539062 -4.710938 10.03125 -4.203125 C 10.53125 -3.691406 11.035156 -3.238281 11.546875 -2.84375 C 12.066406 -2.457031 12.59375 -2.144531 13.125 -1.90625 C 13.664062 -1.664062 14.203125 -1.546875 14.734375 -1.546875 C 14.910156 -1.546875 15.101562 -1.566406 15.3125 -1.609375 C 15.519531 -1.648438 15.734375 -1.722656 15.953125 -1.828125 C 15.523438 -1.367188 15.148438 -1.007812 14.828125 -0.75 C 14.503906 -0.488281 14.234375 -0.300781 14.015625 -0.1875 C 13.753906 -0.03125 13.535156 0.0546875 13.359375 0.078125 C 13.128906 0.109375 12.847656 0.0625 12.515625 -0.0625 C 12.191406 -0.195312 11.835938 -0.378906 11.453125 -0.609375 C 11.066406 -0.835938 10.664062 -1.109375 10.25 -1.421875 C 9.84375 -1.742188 9.441406 -2.078125 9.046875 -2.421875 C 8.617188 -2.828125 8.15625 -3.296875 7.65625 -3.828125 C 7.238281 -4.285156 6.765625 -4.835938 6.234375 -5.484375 C 5.703125 -6.140625 5.160156 -6.882812 4.609375 -7.71875 L 5.53125 -8.875 C 5.738281 -9.050781 5.988281 -9.269531 6.28125 -9.53125 C 6.570312 -9.800781 6.878906 -10.09375 7.203125 -10.40625 C 7.523438 -10.726562 7.847656 -11.066406 8.171875 -11.421875 C 8.503906 -11.773438 8.816406 -12.128906 9.109375 -12.484375 C 9.398438 -12.847656 9.660156 -13.203125 9.890625 -13.546875 C 10.117188 -13.898438 10.296875 -14.226562 10.421875 -14.53125 C 10.222656 -14.507812 9.9375 -14.484375 9.5625 -14.453125 C 9.195312 -14.421875 8.773438 -14.367188 8.296875 -14.296875 C 8.679688 -14.609375 9.023438 -14.84375 9.328125 -15 C 9.640625 -15.164062 9.90625 -15.289062 10.125 -15.375 C 10.382812 -15.457031 10.617188 -15.503906 10.828125 -15.515625 C 11.078125 -15.515625 11.347656 -15.519531 11.640625 -15.53125 C 11.941406 -15.539062 12.234375 -15.554688 12.515625 -15.578125 C 12.796875 -15.609375 13.050781 -15.644531 13.28125 -15.6875 C 13.507812 -15.726562 13.6875 -15.769531 13.8125 -15.8125 Z M 6.453125 -1.375 C 6.066406 -1.125 5.75 -0.90625 5.5 -0.71875 C 5.25 -0.53125 5.019531 -0.375 4.8125 -0.25 C 4.613281 -0.132812 4.421875 -0.0507812 4.234375 0 C 4.046875 0.0507812 3.820312 0.078125 3.5625 0.078125 C 3.21875 0.078125 2.925781 0.0625 2.6875 0.03125 C 2.445312 0.0078125 2.207031 0 1.96875 0 C 1.84375 0 1.71875 0.00390625 1.59375 0.015625 C 1.46875 0.0234375 1.332031 0.046875 1.1875 0.078125 C 1.382812 -0.0859375 1.5625 -0.269531 1.71875 -0.46875 C 1.882812 -0.664062 2.023438 -0.910156 2.140625 -1.203125 C 2.265625 -1.492188 2.359375 -1.84375 2.421875 -2.25 C 2.484375 -2.664062 2.515625 -3.160156 2.515625 -3.734375 L 2.515625 -14.515625 C 2.296875 -14.492188 2.03125 -14.460938 1.71875 -14.421875 C 1.40625 -14.390625 1.050781 -14.347656 0.65625 -14.296875 C 1.039062 -14.609375 1.382812 -14.84375 1.6875 -15 C 2 -15.164062 2.265625 -15.289062 2.484375 -15.375 C 2.742188 -15.457031 2.972656 -15.503906 3.171875 -15.515625 C 3.421875 -15.515625 3.695312 -15.519531 4 -15.53125 C 4.300781 -15.539062 4.59375 -15.554688 4.875 -15.578125 C 5.15625 -15.609375 5.410156 -15.644531 5.640625 -15.6875 C 5.878906 -15.726562 6.054688 -15.769531 6.171875 -15.8125 C 5.835938 -15.59375 5.535156 -15.40625 5.265625 -15.25 C 4.992188 -15.09375 4.738281 -14.96875 4.5 -14.875 C 4.46875 -13.582031 4.4375 -12.425781 4.40625 -11.40625 C 4.382812 -10.394531 4.363281 -9.492188 4.34375 -8.703125 C 4.332031 -7.921875 4.320312 -7.242188 4.3125 -6.671875 C 4.300781 -6.097656 4.289062 -5.609375 4.28125 -5.203125 C 4.257812 -4.253906 4.253906 -3.601562 4.265625 -3.25 C 4.253906 -2.988281 4.21875 -2.726562 4.15625 -2.46875 C 4.09375 -2.25 4.003906 -2.007812 3.890625 -1.75 C 3.773438 -1.5 3.613281 -1.269531 3.40625 -1.0625 C 3.539062 -1.050781 3.671875 -1.046875 3.796875 -1.046875 C 3.921875 -1.046875 4.046875 -1.046875 4.171875 -1.046875 C 4.535156 -1.046875 4.859375 -1.0625 5.140625 -1.09375 C 5.421875 -1.125 5.65625 -1.160156 5.84375 -1.203125 C 6.070312 -1.253906 6.273438 -1.3125 6.453125 -1.375 Z M 6.453125 -1.375 "/></g></g></g><g fill="#000000" fill-opacity="1"><g transform="translate(185.753306, 227.709646)"><g><path d="M 6.453125 -1.375 C 6.066406 -1.125 5.75 -0.90625 5.5 -0.71875 C 5.25 -0.53125 5.019531 -0.375 4.8125 -0.25 C 4.613281 -0.132812 4.421875 -0.0507812 4.234375 0 C 4.046875 0.0507812 3.820312 0.078125 3.5625 0.078125 C 3.21875 0.078125 2.925781 0.0625 2.6875 0.03125 C 2.445312 0.0078125 2.207031 0 1.96875 0 C 1.84375 0 1.71875 0.00390625 1.59375 0.015625 C 1.46875 0.0234375 1.332031 0.046875 1.1875 0.078125 C 1.382812 -0.0859375 1.5625 -0.269531 1.71875 -0.46875 C 1.882812 -0.664062 2.023438 -0.910156 2.140625 -1.203125 C 2.265625 -1.492188 2.359375 -1.84375 2.421875 -2.25 C 2.484375 -2.664062 2.515625 -3.160156 2.515625 -3.734375 L 2.515625 -14.515625 C 2.296875 -14.492188 2.03125 -14.460938 1.71875 -14.421875 C 1.40625 -14.390625 1.050781 -14.347656 0.65625 -14.296875 C 1.039062 -14.609375 1.382812 -14.84375 1.6875 -15 C 2 -15.164062 2.265625 -15.289062 2.484375 -15.375 C 2.742188 -15.457031 2.972656 -15.503906 3.171875 -15.515625 C 3.421875 -15.515625 3.695312 -15.519531 4 -15.53125 C 4.300781 -15.539062 4.59375 -15.554688 4.875 -15.578125 C 5.15625 -15.609375 5.410156 -15.644531 5.640625 -15.6875 C 5.878906 -15.726562 6.054688 -15.769531 6.171875 -15.8125 C 5.835938 -15.59375 5.535156 -15.40625 5.265625 -15.25 C 4.992188 -15.09375 4.738281 -14.96875 4.5 -14.875 C 4.46875 -13.582031 4.4375 -12.425781 4.40625 -11.40625 C 4.382812 -10.394531 4.363281 -9.492188 4.34375 -8.703125 C 4.332031 -7.921875 4.320312 -7.242188 4.3125 -6.671875 C 4.300781 -6.097656 4.289062 -5.609375 4.28125 -5.203125 C 4.257812 -4.253906 4.253906 -3.601562 4.265625 -3.25 C 4.253906 -2.988281 4.21875 -2.726562 4.15625 -2.46875 C 4.09375 -2.25 4.003906 -2.007812 3.890625 -1.75 C 3.773438 -1.5 3.613281 -1.269531 3.40625 -1.0625 C 3.539062 -1.050781 3.671875 -1.046875 3.796875 -1.046875 C 3.921875 -1.046875 4.046875 -1.046875 4.171875 -1.046875 C 4.535156 -1.046875 4.859375 -1.0625 5.140625 -1.09375 C 5.421875 -1.125 5.65625 -1.160156 5.84375 -1.203125 C 6.070312 -1.253906 6.273438 -1.3125 6.453125 -1.375 Z M 6.453125 -1.375 "/></g></g></g><g fill="#000000" fill-opacity="1"><g transform="translate(194.214393, 227.709646)"><g><path d="M 9.375 -8.375 C 9.3125 -8.34375 9.21875 -8.285156 9.09375 -8.203125 C 8.976562 -8.128906 8.816406 -8.023438 8.609375 -7.890625 C 8.398438 -7.753906 8.125 -7.566406 7.78125 -7.328125 C 7.832031 -7.429688 7.828125 -7.507812 7.765625 -7.5625 C 7.710938 -7.625 7.632812 -7.664062 7.53125 -7.6875 C 7.414062 -7.71875 7.273438 -7.726562 7.109375 -7.71875 C 6.847656 -7.695312 6.476562 -7.671875 6 -7.640625 C 5.519531 -7.609375 4.976562 -7.582031 4.375 -7.5625 C 4.375 -6.425781 4.363281 -5.5 4.34375 -4.78125 C 4.332031 -4.070312 4.328125 -3.515625 4.328125 -3.109375 C 4.304688 -2.640625 4.289062 -2.296875 4.28125 -2.078125 C 4.269531 -1.941406 4.226562 -1.804688 4.15625 -1.671875 C 4.09375 -1.546875 4 -1.414062 3.875 -1.28125 C 3.75 -1.144531 3.578125 -1.023438 3.359375 -0.921875 L 8.203125 -0.921875 C 8.421875 -0.921875 8.648438 -0.929688 8.890625 -0.953125 C 9.085938 -0.984375 9.300781 -1.019531 9.53125 -1.0625 C 9.757812 -1.113281 9.976562 -1.191406 10.1875 -1.296875 C 9.832031 -0.960938 9.476562 -0.703125 9.125 -0.515625 C 8.78125 -0.335938 8.460938 -0.210938 8.171875 -0.140625 C 7.828125 -0.046875 7.5 0.00390625 7.1875 0.015625 C 6.488281 0.015625 5.832031 0.0195312 5.21875 0.03125 C 4.601562 0.0390625 4.046875 0.0546875 3.546875 0.078125 C 3.046875 0.0976562 2.617188 0.125 2.265625 0.15625 C 1.910156 0.1875 1.65625 0.222656 1.5 0.265625 C 1.71875 0.046875 1.890625 -0.164062 2.015625 -0.375 C 2.140625 -0.59375 2.234375 -0.832031 2.296875 -1.09375 C 2.367188 -1.363281 2.410156 -1.660156 2.421875 -1.984375 C 2.441406 -2.316406 2.445312 -2.710938 2.4375 -3.171875 L 2.4375 -7.546875 C 2.238281 -7.546875 2.039062 -7.546875 1.84375 -7.546875 C 1.644531 -7.554688 1.453125 -7.570312 1.265625 -7.59375 L 2.4375 -8.203125 C 2.4375 -8.585938 2.4375 -8.988281 2.4375 -9.40625 C 2.4375 -9.832031 2.4375 -10.285156 2.4375 -10.765625 C 2.4375 -11.253906 2.429688 -11.773438 2.421875 -12.328125 C 2.421875 -12.890625 2.421875 -13.5 2.421875 -14.15625 C 2.097656 -14.15625 1.796875 -14.160156 1.515625 -14.171875 C 1.234375 -14.179688 0.96875 -14.191406 0.71875 -14.203125 L 2.71875 -15.265625 C 4.0625 -15.265625 5.210938 -15.269531 6.171875 -15.28125 C 7.128906 -15.300781 7.921875 -15.320312 8.546875 -15.34375 C 9.273438 -15.375 9.878906 -15.40625 10.359375 -15.4375 C 10.609375 -15.4375 10.769531 -15.414062 10.84375 -15.375 C 10.925781 -15.332031 10.957031 -15.285156 10.9375 -15.234375 C 10.925781 -15.191406 10.882812 -15.144531 10.8125 -15.09375 C 10.738281 -15.050781 10.675781 -15.019531 10.625 -15 C 10.5625 -14.96875 10.453125 -14.90625 10.296875 -14.8125 C 10.160156 -14.738281 9.96875 -14.617188 9.71875 -14.453125 C 9.476562 -14.285156 9.144531 -14.054688 8.71875 -13.765625 C 8.863281 -13.921875 8.925781 -14.035156 8.90625 -14.109375 C 8.882812 -14.191406 8.832031 -14.25 8.75 -14.28125 C 8.65625 -14.3125 8.53125 -14.328125 8.375 -14.328125 C 8.238281 -14.316406 8.035156 -14.304688 7.765625 -14.296875 C 7.492188 -14.285156 7.175781 -14.269531 6.8125 -14.25 C 6.457031 -14.238281 6.066406 -14.226562 5.640625 -14.21875 C 5.222656 -14.207031 4.796875 -14.195312 4.359375 -14.1875 C 4.359375 -13.050781 4.359375 -12.03125 4.359375 -11.125 C 4.367188 -10.21875 4.375 -9.390625 4.375 -8.640625 C 5.101562 -8.640625 5.753906 -8.648438 6.328125 -8.671875 C 6.910156 -8.691406 7.410156 -8.710938 7.828125 -8.734375 C 8.304688 -8.765625 8.734375 -8.789062 9.109375 -8.8125 C 9.347656 -8.8125 9.503906 -8.789062 9.578125 -8.75 C 9.660156 -8.71875 9.691406 -8.675781 9.671875 -8.625 C 9.660156 -8.582031 9.617188 -8.535156 9.546875 -8.484375 C 9.484375 -8.429688 9.425781 -8.394531 9.375 -8.375 Z M 9.375 -8.375 "/></g></g></g><g fill="#000000" fill-opacity="1"><g transform="translate(207.030866, 227.709646)"><g/></g></g><g fill="#000000" fill-opacity="1"><g transform="translate(214.11489, 227.709646)"><g><path d="M 13.5625 -14.90625 C 13.476562 -14.863281 13.351562 -14.796875 13.1875 -14.703125 C 13.050781 -14.628906 12.859375 -14.519531 12.609375 -14.375 C 12.367188 -14.226562 12.050781 -14.039062 11.65625 -13.8125 C 11.78125 -13.96875 11.835938 -14.078125 11.828125 -14.140625 C 11.816406 -14.210938 11.78125 -14.257812 11.71875 -14.28125 C 11.644531 -14.3125 11.550781 -14.316406 11.4375 -14.296875 C 11.363281 -14.273438 11.207031 -14.253906 10.96875 -14.234375 C 10.738281 -14.222656 10.445312 -14.207031 10.09375 -14.1875 C 9.738281 -14.175781 9.335938 -14.160156 8.890625 -14.140625 C 8.441406 -14.128906 7.96875 -14.125 7.46875 -14.125 C 7.4375 -12.9375 7.410156 -11.867188 7.390625 -10.921875 C 7.367188 -9.984375 7.347656 -9.148438 7.328125 -8.421875 C 7.316406 -7.703125 7.304688 -7.078125 7.296875 -6.546875 C 7.285156 -6.015625 7.273438 -5.554688 7.265625 -5.171875 C 7.242188 -4.296875 7.234375 -3.6875 7.234375 -3.34375 C 7.222656 -3.082031 7.1875 -2.820312 7.125 -2.5625 C 7.070312 -2.34375 6.988281 -2.101562 6.875 -1.84375 C 6.757812 -1.59375 6.59375 -1.363281 6.375 -1.15625 C 6.507812 -1.144531 6.640625 -1.132812 6.765625 -1.125 C 6.890625 -1.125 7.007812 -1.125 7.125 -1.125 C 7.457031 -1.125 7.757812 -1.140625 8.03125 -1.171875 C 8.300781 -1.210938 8.53125 -1.25 8.71875 -1.28125 C 8.914062 -1.3125 9.070312 -1.34375 9.1875 -1.375 C 9.300781 -1.414062 9.375 -1.445312 9.40625 -1.46875 C 9.03125 -1.207031 8.71875 -0.984375 8.46875 -0.796875 C 8.21875 -0.609375 7.992188 -0.457031 7.796875 -0.34375 C 7.597656 -0.226562 7.398438 -0.140625 7.203125 -0.078125 C 7.015625 -0.0234375 6.789062 0 6.53125 0 C 6.1875 0 5.894531 -0.0078125 5.65625 -0.03125 C 5.425781 -0.0625 5.1875 -0.078125 4.9375 -0.078125 C 4.820312 -0.078125 4.703125 -0.0703125 4.578125 -0.0625 C 4.453125 -0.0507812 4.3125 -0.03125 4.15625 0 C 4.351562 -0.164062 4.535156 -0.347656 4.703125 -0.546875 C 4.867188 -0.753906 5.007812 -1.003906 5.125 -1.296875 C 5.238281 -1.585938 5.328125 -1.9375 5.390625 -2.34375 C 5.453125 -2.75 5.484375 -3.242188 5.484375 -3.828125 L 5.484375 -14.0625 C 4.867188 -14.039062 4.265625 -14.023438 3.671875 -14.015625 C 3.078125 -14.003906 2.539062 -13.992188 2.0625 -13.984375 C 1.582031 -13.972656 1.179688 -13.957031 0.859375 -13.9375 C 0.535156 -13.925781 0.332031 -13.914062 0.25 -13.90625 C 0.0507812 -13.882812 -0.0859375 -13.890625 -0.171875 -13.921875 C -0.265625 -13.960938 -0.304688 -14.019531 -0.296875 -14.09375 C -0.285156 -14.164062 -0.234375 -14.253906 -0.140625 -14.359375 C -0.046875 -14.472656 0.0820312 -14.585938 0.25 -14.703125 L 1.703125 -15.765625 C 1.597656 -15.640625 1.566406 -15.539062 1.609375 -15.46875 C 1.648438 -15.40625 1.710938 -15.359375 1.796875 -15.328125 C 1.890625 -15.296875 2.019531 -15.273438 2.1875 -15.265625 C 2.300781 -15.265625 2.53125 -15.265625 2.875 -15.265625 C 3.226562 -15.273438 3.65625 -15.285156 4.15625 -15.296875 C 4.65625 -15.304688 5.210938 -15.316406 5.828125 -15.328125 C 6.441406 -15.335938 7.0625 -15.351562 7.6875 -15.375 C 8.320312 -15.394531 8.945312 -15.410156 9.5625 -15.421875 C 10.175781 -15.429688 10.734375 -15.441406 11.234375 -15.453125 C 11.734375 -15.472656 12.15625 -15.488281 12.5 -15.5 C 12.851562 -15.507812 13.085938 -15.515625 13.203125 -15.515625 C 13.421875 -15.523438 13.578125 -15.507812 13.671875 -15.46875 C 13.773438 -15.425781 13.832031 -15.367188 13.84375 -15.296875 C 13.851562 -15.222656 13.828125 -15.148438 13.765625 -15.078125 C 13.710938 -15.003906 13.644531 -14.945312 13.5625 -14.90625 Z M 9.40625 -1.46875 C 9.40625 -1.476562 9.410156 -1.484375 9.421875 -1.484375 Z M 9.40625 -1.46875 "/></g></g></g><g fill="#000000" fill-opacity="1"><g transform="translate(229.08769, 227.709646)"><g><path d="M 9.375 -8.375 C 9.3125 -8.34375 9.21875 -8.285156 9.09375 -8.203125 C 8.976562 -8.128906 8.816406 -8.023438 8.609375 -7.890625 C 8.398438 -7.753906 8.125 -7.566406 7.78125 -7.328125 C 7.832031 -7.429688 7.828125 -7.507812 7.765625 -7.5625 C 7.710938 -7.625 7.632812 -7.664062 7.53125 -7.6875 C 7.414062 -7.71875 7.273438 -7.726562 7.109375 -7.71875 C 6.847656 -7.695312 6.476562 -7.671875 6 -7.640625 C 5.519531 -7.609375 4.976562 -7.582031 4.375 -7.5625 C 4.375 -6.425781 4.363281 -5.5 4.34375 -4.78125 C 4.332031 -4.070312 4.328125 -3.515625 4.328125 -3.109375 C 4.304688 -2.640625 4.289062 -2.296875 4.28125 -2.078125 C 4.269531 -1.941406 4.226562 -1.804688 4.15625 -1.671875 C 4.09375 -1.546875 4 -1.414062 3.875 -1.28125 C 3.75 -1.144531 3.578125 -1.023438 3.359375 -0.921875 L 8.203125 -0.921875 C 8.421875 -0.921875 8.648438 -0.929688 8.890625 -0.953125 C 9.085938 -0.984375 9.300781 -1.019531 9.53125 -1.0625 C 9.757812 -1.113281 9.976562 -1.191406 10.1875 -1.296875 C 9.832031 -0.960938 9.476562 -0.703125 9.125 -0.515625 C 8.78125 -0.335938 8.460938 -0.210938 8.171875 -0.140625 C 7.828125 -0.046875 7.5 0.00390625 7.1875 0.015625 C 6.488281 0.015625 5.832031 0.0195312 5.21875 0.03125 C 4.601562 0.0390625 4.046875 0.0546875 3.546875 0.078125 C 3.046875 0.0976562 2.617188 0.125 2.265625 0.15625 C 1.910156 0.1875 1.65625 0.222656 1.5 0.265625 C 1.71875 0.046875 1.890625 -0.164062 2.015625 -0.375 C 2.140625 -0.59375 2.234375 -0.832031 2.296875 -1.09375 C 2.367188 -1.363281 2.410156 -1.660156 2.421875 -1.984375 C 2.441406 -2.316406 2.445312 -2.710938 2.4375 -3.171875 L 2.4375 -7.546875 C 2.238281 -7.546875 2.039062 -7.546875 1.84375 -7.546875 C 1.644531 -7.554688 1.453125 -7.570312 1.265625 -7.59375 L 2.4375 -8.203125 C 2.4375 -8.585938 2.4375 -8.988281 2.4375 -9.40625 C 2.4375 -9.832031 2.4375 -10.285156 2.4375 -10.765625 C 2.4375 -11.253906 2.429688 -11.773438 2.421875 -12.328125 C 2.421875 -12.890625 2.421875 -13.5 2.421875 -14.15625 C 2.097656 -14.15625 1.796875 -14.160156 1.515625 -14.171875 C 1.234375 -14.179688 0.96875 -14.191406 0.71875 -14.203125 L 2.71875 -15.265625 C 4.0625 -15.265625 5.210938 -15.269531 6.171875 -15.28125 C 7.128906 -15.300781 7.921875 -15.320312 8.546875 -15.34375 C 9.273438 -15.375 9.878906 -15.40625 10.359375 -15.4375 C 10.609375 -15.4375 10.769531 -15.414062 10.84375 -15.375 C 10.925781 -15.332031 10.957031 -15.285156 10.9375 -15.234375 C 10.925781 -15.191406 10.882812 -15.144531 10.8125 -15.09375 C 10.738281 -15.050781 10.675781 -15.019531 10.625 -15 C 10.5625 -14.96875 10.453125 -14.90625 10.296875 -14.8125 C 10.160156 -14.738281 9.96875 -14.617188 9.71875 -14.453125 C 9.476562 -14.285156 9.144531 -14.054688 8.71875 -13.765625 C 8.863281 -13.921875 8.925781 -14.035156 8.90625 -14.109375 C 8.882812 -14.191406 8.832031 -14.25 8.75 -14.28125 C 8.65625 -14.3125 8.53125 -14.328125 8.375 -14.328125 C 8.238281 -14.316406 8.035156 -14.304688 7.765625 -14.296875 C 7.492188 -14.285156 7.175781 -14.269531 6.8125 -14.25 C 6.457031 -14.238281 6.066406 -14.226562 5.640625 -14.21875 C 5.222656 -14.207031 4.796875 -14.195312 4.359375 -14.1875 C 4.359375 -13.050781 4.359375 -12.03125 4.359375 -11.125 C 4.367188 -10.21875 4.375 -9.390625 4.375 -8.640625 C 5.101562 -8.640625 5.753906 -8.648438 6.328125 -8.671875 C 6.910156 -8.691406 7.410156 -8.710938 7.828125 -8.734375 C 8.304688 -8.765625 8.734375 -8.789062 9.109375 -8.8125 C 9.347656 -8.8125 9.503906 -8.789062 9.578125 -8.75 C 9.660156 -8.71875 9.691406 -8.675781 9.671875 -8.625 C 9.660156 -8.582031 9.617188 -8.535156 9.546875 -8.484375 C 9.484375 -8.429688 9.425781 -8.394531 9.375 -8.375 Z M 9.375 -8.375 "/></g></g></g><g fill="#000000" fill-opacity="1"><g transform="translate(241.904162, 227.709646)"><g><path d="M 14.078125 -14.671875 C 13.953125 -14.503906 13.796875 -14.34375 13.609375 -14.1875 C 13.453125 -14.050781 13.257812 -13.90625 13.03125 -13.75 C 12.800781 -13.601562 12.53125 -13.472656 12.21875 -13.359375 C 12.320312 -13.484375 12.332031 -13.617188 12.25 -13.765625 C 12.164062 -13.910156 11.984375 -14.039062 11.703125 -14.15625 C 11.429688 -14.28125 11.054688 -14.378906 10.578125 -14.453125 C 10.109375 -14.535156 9.53125 -14.578125 8.84375 -14.578125 C 8.445312 -14.578125 8.019531 -14.535156 7.5625 -14.453125 C 7.101562 -14.367188 6.648438 -14.226562 6.203125 -14.03125 C 5.753906 -13.832031 5.320312 -13.566406 4.90625 -13.234375 C 4.488281 -12.910156 4.117188 -12.5 3.796875 -12 C 3.472656 -11.507812 3.21875 -10.921875 3.03125 -10.234375 C 2.84375 -9.554688 2.75 -8.773438 2.75 -7.890625 C 2.75 -6.992188 2.859375 -6.207031 3.078125 -5.53125 C 3.296875 -4.863281 3.582031 -4.285156 3.9375 -3.796875 C 4.300781 -3.304688 4.710938 -2.898438 5.171875 -2.578125 C 5.640625 -2.253906 6.113281 -1.992188 6.59375 -1.796875 C 7.082031 -1.597656 7.554688 -1.457031 8.015625 -1.375 C 8.484375 -1.300781 8.90625 -1.265625 9.28125 -1.265625 C 9.71875 -1.273438 10.171875 -1.304688 10.640625 -1.359375 C 11.046875 -1.410156 11.492188 -1.484375 11.984375 -1.578125 C 12.472656 -1.679688 12.953125 -1.820312 13.421875 -2 C 12.722656 -1.445312 12.078125 -1.023438 11.484375 -0.734375 C 10.898438 -0.441406 10.382812 -0.222656 9.9375 -0.078125 C 9.414062 0.078125 8.9375 0.164062 8.5 0.1875 C 7.445312 0.1875 6.453125 0.0351562 5.515625 -0.265625 C 4.585938 -0.578125 3.773438 -1.023438 3.078125 -1.609375 C 2.378906 -2.203125 1.828125 -2.925781 1.421875 -3.78125 C 1.015625 -4.632812 0.8125 -5.601562 0.8125 -6.6875 C 0.8125 -7.363281 0.875 -7.992188 1 -8.578125 C 1.132812 -9.160156 1.304688 -9.691406 1.515625 -10.171875 C 1.722656 -10.648438 1.957031 -11.082031 2.21875 -11.46875 C 2.476562 -11.863281 2.742188 -12.207031 3.015625 -12.5 C 3.296875 -12.800781 3.566406 -13.050781 3.828125 -13.25 C 4.085938 -13.445312 4.3125 -13.597656 4.5 -13.703125 C 4.6875 -13.804688 4.921875 -13.925781 5.203125 -14.0625 C 5.492188 -14.195312 5.8125 -14.332031 6.15625 -14.46875 C 6.507812 -14.613281 6.875 -14.753906 7.25 -14.890625 C 7.632812 -15.023438 8.023438 -15.144531 8.421875 -15.25 C 8.828125 -15.351562 9.21875 -15.4375 9.59375 -15.5 C 9.976562 -15.570312 10.34375 -15.609375 10.6875 -15.609375 C 11.445312 -15.609375 12.0625 -15.570312 12.53125 -15.5 C 13 -15.425781 13.351562 -15.335938 13.59375 -15.234375 C 13.84375 -15.128906 14 -15.023438 14.0625 -14.921875 C 14.125 -14.816406 14.128906 -14.734375 14.078125 -14.671875 Z M 14.078125 -14.671875 "/></g></g></g><g fill="#000000" fill-opacity="1"><g transform="translate(257.77367, 227.709646)"><g><path d="M 6.171875 -15.890625 C 5.835938 -15.671875 5.535156 -15.488281 5.265625 -15.34375 C 4.992188 -15.195312 4.738281 -15.070312 4.5 -14.96875 C 4.488281 -14.363281 4.472656 -13.796875 4.453125 -13.265625 C 4.441406 -12.742188 4.429688 -12.25 4.421875 -11.78125 C 4.410156 -11.320312 4.398438 -10.882812 4.390625 -10.46875 C 4.390625 -10.0625 4.382812 -9.664062 4.375 -9.28125 C 4.75 -9.363281 5.140625 -9.40625 5.546875 -9.40625 C 5.941406 -9.40625 6.394531 -9.398438 6.90625 -9.390625 C 7.425781 -9.378906 7.960938 -9.363281 8.515625 -9.34375 C 9.066406 -9.320312 9.625 -9.304688 10.1875 -9.296875 C 10.75 -9.285156 11.273438 -9.28125 11.765625 -9.28125 L 12.265625 -9.28125 L 12.265625 -14.59375 C 12.046875 -14.570312 11.773438 -14.546875 11.453125 -14.515625 C 11.140625 -14.484375 10.785156 -14.441406 10.390625 -14.390625 C 10.773438 -14.703125 11.117188 -14.9375 11.421875 -15.09375 C 11.722656 -15.257812 11.984375 -15.378906 12.203125 -15.453125 C 12.460938 -15.535156 12.691406 -15.585938 12.890625 -15.609375 C 13.148438 -15.609375 13.425781 -15.613281 13.71875 -15.625 C 14.019531 -15.632812 14.3125 -15.648438 14.59375 -15.671875 C 14.882812 -15.703125 15.144531 -15.734375 15.375 -15.765625 C 15.601562 -15.804688 15.773438 -15.847656 15.890625 -15.890625 C 15.554688 -15.671875 15.253906 -15.488281 14.984375 -15.34375 C 14.722656 -15.195312 14.472656 -15.070312 14.234375 -14.96875 C 14.191406 -13.675781 14.160156 -12.519531 14.140625 -11.5 C 14.117188 -10.488281 14.097656 -9.585938 14.078125 -8.796875 C 14.066406 -8.015625 14.054688 -7.332031 14.046875 -6.75 C 14.035156 -6.175781 14.023438 -5.6875 14.015625 -5.28125 C 13.992188 -4.332031 13.988281 -3.6875 14 -3.34375 C 13.988281 -3.082031 13.953125 -2.820312 13.890625 -2.5625 C 13.828125 -2.34375 13.738281 -2.101562 13.625 -1.84375 C 13.507812 -1.59375 13.347656 -1.363281 13.140625 -1.15625 C 13.265625 -1.144531 13.382812 -1.132812 13.5 -1.125 C 13.625 -1.125 13.75 -1.125 13.875 -1.125 C 14.207031 -1.125 14.503906 -1.140625 14.765625 -1.171875 C 15.035156 -1.210938 15.269531 -1.25 15.46875 -1.28125 C 15.664062 -1.3125 15.820312 -1.34375 15.9375 -1.375 C 16.050781 -1.414062 16.125 -1.445312 16.15625 -1.46875 C 15.769531 -1.207031 15.453125 -0.984375 15.203125 -0.796875 C 14.960938 -0.609375 14.738281 -0.457031 14.53125 -0.34375 C 14.332031 -0.226562 14.140625 -0.140625 13.953125 -0.078125 C 13.765625 -0.0234375 13.539062 0 13.28125 0 C 12.945312 0 12.660156 -0.0078125 12.421875 -0.03125 C 12.179688 -0.0625 11.941406 -0.078125 11.703125 -0.078125 C 11.578125 -0.078125 11.453125 -0.0703125 11.328125 -0.0625 C 11.203125 -0.0507812 11.0625 -0.03125 10.90625 0 C 11.132812 -0.101562 11.332031 -0.210938 11.5 -0.328125 C 11.675781 -0.453125 11.816406 -0.617188 11.921875 -0.828125 C 12.035156 -1.035156 12.117188 -1.3125 12.171875 -1.65625 C 12.234375 -2 12.265625 -2.460938 12.265625 -3.046875 L 12.265625 -8.59375 C 12.054688 -8.550781 11.820312 -8.515625 11.5625 -8.484375 C 11.3125 -8.453125 11.019531 -8.4375 10.6875 -8.4375 C 10.21875 -8.4375 9.675781 -8.453125 9.0625 -8.484375 C 8.445312 -8.515625 7.769531 -8.53125 7.03125 -8.53125 C 6.59375 -8.53125 6.148438 -8.519531 5.703125 -8.5 C 5.265625 -8.476562 4.816406 -8.441406 4.359375 -8.390625 C 4.328125 -7.347656 4.304688 -6.5 4.296875 -5.84375 C 4.285156 -5.1875 4.273438 -4.671875 4.265625 -4.296875 C 4.265625 -3.867188 4.265625 -3.550781 4.265625 -3.34375 C 4.253906 -3.082031 4.21875 -2.820312 4.15625 -2.5625 C 4.09375 -2.34375 4.003906 -2.101562 3.890625 -1.84375 C 3.773438 -1.59375 3.613281 -1.363281 3.40625 -1.15625 C 3.539062 -1.144531 3.664062 -1.132812 3.78125 -1.125 C 3.90625 -1.125 4.03125 -1.125 4.15625 -1.125 C 4.488281 -1.125 4.785156 -1.140625 5.046875 -1.171875 C 5.316406 -1.210938 5.550781 -1.25 5.75 -1.28125 C 5.945312 -1.3125 6.097656 -1.34375 6.203125 -1.375 C 6.316406 -1.414062 6.390625 -1.445312 6.421875 -1.46875 C 6.046875 -1.207031 5.734375 -0.984375 5.484375 -0.796875 C 5.234375 -0.609375 5.007812 -0.457031 4.8125 -0.34375 C 4.613281 -0.226562 4.421875 -0.140625 4.234375 -0.078125 C 4.046875 -0.0234375 3.820312 0 3.5625 0 C 3.21875 0 2.925781 -0.0078125 2.6875 -0.03125 C 2.445312 -0.0625 2.207031 -0.078125 1.96875 -0.078125 C 1.84375 -0.078125 1.71875 -0.0703125 1.59375 -0.0625 C 1.46875 -0.0507812 1.332031 -0.03125 1.1875 0 C 1.382812 -0.164062 1.5625 -0.347656 1.71875 -0.546875 C 1.882812 -0.753906 2.023438 -1.003906 2.140625 -1.296875 C 2.265625 -1.585938 2.359375 -1.9375 2.421875 -2.34375 C 2.484375 -2.75 2.515625 -3.242188 2.515625 -3.828125 L 2.515625 -8.0625 C 2.359375 -8.03125 2.195312 -7.992188 2.03125 -7.953125 C 1.875 -7.910156 1.71875 -7.859375 1.5625 -7.796875 C 1.71875 -7.941406 1.875 -8.070312 2.03125 -8.1875 C 2.195312 -8.3125 2.359375 -8.429688 2.515625 -8.546875 L 2.515625 -14.59375 C 2.296875 -14.570312 2.03125 -14.546875 1.71875 -14.515625 C 1.40625 -14.484375 1.050781 -14.441406 0.65625 -14.390625 C 1.039062 -14.703125 1.382812 -14.9375 1.6875 -15.09375 C 2 -15.257812 2.265625 -15.378906 2.484375 -15.453125 C 2.742188 -15.535156 2.972656 -15.585938 3.171875 -15.609375 C 3.421875 -15.609375 3.695312 -15.613281 4 -15.625 C 4.300781 -15.632812 4.59375 -15.648438 4.875 -15.671875 C 5.15625 -15.703125 5.410156 -15.734375 5.640625 -15.765625 C 5.878906 -15.804688 6.054688 -15.847656 6.171875 -15.890625 Z M 6.421875 -1.46875 C 6.429688 -1.476562 6.441406 -1.484375 6.453125 -1.484375 Z M 16.15625 -1.46875 C 16.164062 -1.476562 16.175781 -1.484375 16.1875 -1.484375 Z M 16.15625 -1.46875 "/></g></g></g></svg>