<?xml version="1.0" encoding="UTF-8" standalone="no"?>
<!-- Created with Inkscape (http://www.inkscape.org/) -->
<svg
   xmlns:dc="http://purl.org/dc/elements/1.1/"
   xmlns:cc="http://web.resource.org/cc/"
   xmlns:rdf="http://www.w3.org/1999/02/22-rdf-syntax-ns#"
   xmlns:svg="http://www.w3.org/2000/svg"
   xmlns="http://www.w3.org/2000/svg"
   xmlns:sodipodi="http://sodipodi.sourceforge.net/DTD/sodipodi-0.dtd"
   xmlns:inkscape="http://www.inkscape.org/namespaces/inkscape"
   height="530"
   width="600"
   id="svg2"
   sodipodi:version="0.32"
   inkscape:version="0.45"
   sodipodi:modified="true"
   version="1.0">
  <defs
     id="defs4">
			
			
			
		</defs>
  <sodipodi:namedview
     id="base"
     pagecolor="#ffffff"
     bordercolor="#666666"
     borderopacity="1.0"
     inkscape:pageopacity="0.0"
     inkscape:pageshadow="2"
     inkscape:cx="1005.1628"
     inkscape:cy="717.27251"
     inkscape:zoom="0.175"
     inkscape:document-units="px"
     inkscape:current-layer="layer1"
     showguides="true"
     inkscape:guide-bbox="true"
     inkscape:window-width="836"
     inkscape:window-height="573"
     inkscape:window-x="132"
     inkscape:window-y="174" />
  <metadata
     id="metadata7">
    <rdf:RDF>
      <cc:Work
         rdf:about="">
        <dc:format>image/svg+xml</dc:format>
        <dc:type
           rdf:resource="http://purl.org/dc/dcmitype/StillImage" />
      </cc:Work>
    </rdf:RDF>
  </metadata>
  <g
     inkscape:groupmode="layer"
     inkscape:label="Warstwa 1"
     id="layer1"
     transform="translate(112.76538,266.62314)">
    <g
       id="g3344"
       transform="matrix(0.3469907,0,0,0.3469012,-471.8202,-174.32571)">
      <g
         transform="translate(-1081.4351,-349.15087)"
         id="g3336">
        <path
           sodipodi:nodetypes="ccccscccccc"
           id="path3340"
           d="M 2977.6339,125.28196 C 2975.7413,125.2843 2973.8248,125.35825 2971.9184,125.45964 C 2935.3992,127.39281 2902.6967,147.44774 2884.41,179.11961 C 2884.41,179.11647 2172.7046,1411.6703 2172.7046,1411.6703 C 2153.5391,1444.8696 2153.5359,1486.1263 2172.7046,1519.316 C 2191.8732,1552.5056 2227.5943,1573.0944 2265.9284,1573.0944 L 3689.3393,1573.0944 C 3727.6735,1573.0944 3763.3976,1552.5056 3782.5631,1519.316 C 3801.7318,1486.1232 3801.7317,1444.8631 3782.5631,1411.6703 L 3070.8577,179.11961 C 3051.4577,145.5092 3016.1169,125.23446 2977.6339,125.28196 z "
           style="opacity:1;fill:#ffffff;fill-opacity:1" />
      </g>
      <path
         id="maple_leaf"
         d="M 1751.7651,356.3846 L 1744.7645,495.88679 C 1743.7255,511.17379 1731.3984,515.35925 1716.4842,513.80926 L 1664.1501,510.00795 L 1773.9886,669.89122 C 1794.9205,698.71076 1773.7681,708.25093 1757.1292,699.21231 L 1644.9689,646.40039 L 1652.7303,695.40806 C 1653.9404,701.75783 1650.6122,710.50135 1640.9002,713.15691 L 1538.8716,734.61791 L 1605.0517,816.29759 C 1619.5719,834.56498 1627.4938,841.26683 1615.387,853.27242 L 1589.634,884.45321 L 1810.6327,948.08745 C 1819.2717,950.36605 1826.6319,958.15852 1828.1509,967.53488 L 1835.808,1021.8272 C 1887.8365,990.38152 1934.4867,962.19898 1986.5176,930.76231 C 1991.3776,928.49363 2001.443,929.18141 2004.0653,935.0843 L 2050.3491,1069.8836 L 2077.0999,1057.8182 L 2019.485,928.58336 C 2016.7962,922.71049 2022.0181,914.67403 2026.9356,912.53273 C 2084.9402,894.34094 2136.9443,878.0284 2194.9542,859.84456 L 2159.3267,818.16756 C 2153.3044,810.82228 2152.3348,800.14728 2156.3458,792.1636 L 2254.9331,584.38904 L 2214.5142,583.05333 C 2197.5016,584.18122 2197.7219,573.80704 2193.6404,550.83152 L 2176.2229,447.15881 L 2092.6005,509.43042 C 2084.1816,514.95219 2075.4243,511.65947 2071.4657,506.54939 L 2039.8691,468.29196 L 2005.213,587.32123 C 2000.9741,605.77616 1979.8217,615.31631 1972.0753,580.54987 L 1924.9371,392.38743 L 1893.1453,434.13135 C 1884.4346,446.33655 1873.138,452.80604 1860.9916,443.46593"
         style="fill:#02913f;fill-opacity:1"
         sodipodi:nodetypes="ccccccccccccccccccccccccccccccccccccc" />
      <path
         style="fill:#02913f;fill-opacity:1"
         d="M 1899.3438,-266.0625 C 1897.3466,-266.06003 1895.3242,-265.98199 1893.3125,-265.875 C 1854.7754,-263.83501 1820.2659,-242.67193 1800.9688,-209.25 C 1800.9687,-209.25332 1049.9375,1091.4063 1049.9375,1091.4063 C 1029.713,1126.44 1029.7096,1169.9764 1049.9375,1205 C 1070.1653,1240.0236 1107.8602,1261.75 1148.3125,1261.75 L 2650.375,1261.75 C 2690.8274,1261.75 2728.5255,1240.0236 2748.75,1205 C 2768.9779,1169.9731 2768.9778,1126.4332 2748.75,1091.4063 L 1997.7188,-209.25 C 1977.2468,-244.71758 1939.9532,-266.11262 1899.3438,-266.0625 z M 1898.4688,-66.9375 C 1916.3128,-67.270116 1932.7795,-57.982445 1941.75,-42.4375 C 1941.75,-42.431855 2574.7754,1053.8438 2574.7813,1053.8438 C 2583.4948,1068.9465 2583.4979,1087.7154 2574.7813,1102.8125 C 2566.0562,1117.9125 2549.8196,1127.2812 2532.375,1127.2813 C 2532.372,1127.2813 1266.3125,1127.2812 1266.3125,1127.2813 C 1248.8707,1127.2813 1232.6256,1117.9125 1223.9063,1102.8125 C 1215.1868,1087.7126 1215.1583,1068.9437 1223.875,1053.8438 C 1223.872,1053.8466 1856.9063,-42.437501 1856.9063,-42.4375 C 1865.2253,-56.849659 1880.1294,-65.991103 1896.75,-66.875 C 1897.3283,-66.905818 1897.8931,-66.92677 1898.4688,-66.9375 z "
         id="boarder" />
    </g>
  </g>
</svg>
