<?xml version="1.0" encoding="utf-8"?>
<!-- Generator: Adobe Illustrator 15.1.0, SVG Export Plug-In . SVG Version: 6.00 Build 0)  -->
<!DOCTYPE svg PUBLIC "-//W3C//DTD SVG 1.1//EN" "http://www.w3.org/Graphics/SVG/1.1/DTD/svg11.dtd">
<svg version="1.1" id="Layer_1" xmlns="http://www.w3.org/2000/svg" xmlns:xlink="http://www.w3.org/1999/xlink" x="0px" y="0px"
	 width="150px" height="130.802px" viewBox="0 0 150 130.802" enable-background="new 0 0 150 130.802" xml:space="preserve">
<g>
	<path fill="#C0111E" d="M144.791,112.772l-20.672-35.78c-5.215-9.027-13.749-23.798-18.964-32.824L84.482,8.387
		c-5.215-9.027-13.749-9.027-18.964,0l-20.673,35.78c-5.215,9.027-13.749,23.798-18.964,32.824l-20.672,35.78
		c-5.215,9.027-0.953,16.412,9.472,16.412h41.365c10.425,0,27.484,0,37.909,0h41.365
		C145.744,129.184,150.007,121.799,144.791,112.772z M75,99.896H46.343l14.329-24.667L75,50.561l14.328,24.667l14.329,24.667H75z"/>
	<polygon fill="#FFFFFF" points="75,50.561 60.671,75.229 46.343,99.896 75,99.896 103.658,99.896 89.329,75.229 	"/>
</g>
</svg>
